%TF.GenerationSoftware,KiCad,Pcbnew,9.0.7*%
%TF.CreationDate,2026-05-12T18:13:30-04:00*%
%TF.ProjectId,FriendlyHeadlamp,46726965-6e64-46c7-9948-6561646c616d,rev?*%
%TF.SameCoordinates,Original*%
%TF.FileFunction,Legend,Top*%
%TF.FilePolarity,Positive*%
%FSLAX46Y46*%
G04 Gerber Fmt 4.6, Leading zero omitted, Abs format (unit mm)*
G04 Created by KiCad (PCBNEW 9.0.7) date 2026-05-12 18:13:30*
%MOMM*%
%LPD*%
G01*
G04 APERTURE LIST*
%ADD10C,0.150000*%
%ADD11C,0.120000*%
%ADD12C,0.127000*%
%ADD13C,0.200000*%
%ADD14C,0.203200*%
G04 APERTURE END LIST*
D10*
X79957142Y-89389580D02*
X79909523Y-89437200D01*
X79909523Y-89437200D02*
X79766666Y-89484819D01*
X79766666Y-89484819D02*
X79671428Y-89484819D01*
X79671428Y-89484819D02*
X79528571Y-89437200D01*
X79528571Y-89437200D02*
X79433333Y-89341961D01*
X79433333Y-89341961D02*
X79385714Y-89246723D01*
X79385714Y-89246723D02*
X79338095Y-89056247D01*
X79338095Y-89056247D02*
X79338095Y-88913390D01*
X79338095Y-88913390D02*
X79385714Y-88722914D01*
X79385714Y-88722914D02*
X79433333Y-88627676D01*
X79433333Y-88627676D02*
X79528571Y-88532438D01*
X79528571Y-88532438D02*
X79671428Y-88484819D01*
X79671428Y-88484819D02*
X79766666Y-88484819D01*
X79766666Y-88484819D02*
X79909523Y-88532438D01*
X79909523Y-88532438D02*
X79957142Y-88580057D01*
X80909523Y-89484819D02*
X80338095Y-89484819D01*
X80623809Y-89484819D02*
X80623809Y-88484819D01*
X80623809Y-88484819D02*
X80528571Y-88627676D01*
X80528571Y-88627676D02*
X80433333Y-88722914D01*
X80433333Y-88722914D02*
X80338095Y-88770533D01*
X81290476Y-88580057D02*
X81338095Y-88532438D01*
X81338095Y-88532438D02*
X81433333Y-88484819D01*
X81433333Y-88484819D02*
X81671428Y-88484819D01*
X81671428Y-88484819D02*
X81766666Y-88532438D01*
X81766666Y-88532438D02*
X81814285Y-88580057D01*
X81814285Y-88580057D02*
X81861904Y-88675295D01*
X81861904Y-88675295D02*
X81861904Y-88770533D01*
X81861904Y-88770533D02*
X81814285Y-88913390D01*
X81814285Y-88913390D02*
X81242857Y-89484819D01*
X81242857Y-89484819D02*
X81861904Y-89484819D01*
X53249760Y-100091666D02*
X53297380Y-100139285D01*
X53297380Y-100139285D02*
X53344999Y-100282142D01*
X53344999Y-100282142D02*
X53344999Y-100377380D01*
X53344999Y-100377380D02*
X53297380Y-100520237D01*
X53297380Y-100520237D02*
X53202141Y-100615475D01*
X53202141Y-100615475D02*
X53106903Y-100663094D01*
X53106903Y-100663094D02*
X52916427Y-100710713D01*
X52916427Y-100710713D02*
X52773570Y-100710713D01*
X52773570Y-100710713D02*
X52583094Y-100663094D01*
X52583094Y-100663094D02*
X52487856Y-100615475D01*
X52487856Y-100615475D02*
X52392618Y-100520237D01*
X52392618Y-100520237D02*
X52344999Y-100377380D01*
X52344999Y-100377380D02*
X52344999Y-100282142D01*
X52344999Y-100282142D02*
X52392618Y-100139285D01*
X52392618Y-100139285D02*
X52440237Y-100091666D01*
X53344999Y-99139285D02*
X53344999Y-99710713D01*
X53344999Y-99424999D02*
X52344999Y-99424999D01*
X52344999Y-99424999D02*
X52487856Y-99520237D01*
X52487856Y-99520237D02*
X52583094Y-99615475D01*
X52583094Y-99615475D02*
X52630713Y-99710713D01*
X67457142Y-82404819D02*
X67123809Y-81928628D01*
X66885714Y-82404819D02*
X66885714Y-81404819D01*
X66885714Y-81404819D02*
X67266666Y-81404819D01*
X67266666Y-81404819D02*
X67361904Y-81452438D01*
X67361904Y-81452438D02*
X67409523Y-81500057D01*
X67409523Y-81500057D02*
X67457142Y-81595295D01*
X67457142Y-81595295D02*
X67457142Y-81738152D01*
X67457142Y-81738152D02*
X67409523Y-81833390D01*
X67409523Y-81833390D02*
X67361904Y-81881009D01*
X67361904Y-81881009D02*
X67266666Y-81928628D01*
X67266666Y-81928628D02*
X66885714Y-81928628D01*
X68409523Y-82404819D02*
X67838095Y-82404819D01*
X68123809Y-82404819D02*
X68123809Y-81404819D01*
X68123809Y-81404819D02*
X68028571Y-81547676D01*
X68028571Y-81547676D02*
X67933333Y-81642914D01*
X67933333Y-81642914D02*
X67838095Y-81690533D01*
X68790476Y-81500057D02*
X68838095Y-81452438D01*
X68838095Y-81452438D02*
X68933333Y-81404819D01*
X68933333Y-81404819D02*
X69171428Y-81404819D01*
X69171428Y-81404819D02*
X69266666Y-81452438D01*
X69266666Y-81452438D02*
X69314285Y-81500057D01*
X69314285Y-81500057D02*
X69361904Y-81595295D01*
X69361904Y-81595295D02*
X69361904Y-81690533D01*
X69361904Y-81690533D02*
X69314285Y-81833390D01*
X69314285Y-81833390D02*
X68742857Y-82404819D01*
X68742857Y-82404819D02*
X69361904Y-82404819D01*
X63140476Y-71267319D02*
X63140476Y-70267319D01*
X63140476Y-70267319D02*
X63521428Y-70267319D01*
X63521428Y-70267319D02*
X63616666Y-70314938D01*
X63616666Y-70314938D02*
X63664285Y-70362557D01*
X63664285Y-70362557D02*
X63711904Y-70457795D01*
X63711904Y-70457795D02*
X63711904Y-70600652D01*
X63711904Y-70600652D02*
X63664285Y-70695890D01*
X63664285Y-70695890D02*
X63616666Y-70743509D01*
X63616666Y-70743509D02*
X63521428Y-70791128D01*
X63521428Y-70791128D02*
X63140476Y-70791128D01*
X64330952Y-70267319D02*
X64521428Y-70267319D01*
X64521428Y-70267319D02*
X64616666Y-70314938D01*
X64616666Y-70314938D02*
X64711904Y-70410176D01*
X64711904Y-70410176D02*
X64759523Y-70600652D01*
X64759523Y-70600652D02*
X64759523Y-70933985D01*
X64759523Y-70933985D02*
X64711904Y-71124461D01*
X64711904Y-71124461D02*
X64616666Y-71219700D01*
X64616666Y-71219700D02*
X64521428Y-71267319D01*
X64521428Y-71267319D02*
X64330952Y-71267319D01*
X64330952Y-71267319D02*
X64235714Y-71219700D01*
X64235714Y-71219700D02*
X64140476Y-71124461D01*
X64140476Y-71124461D02*
X64092857Y-70933985D01*
X64092857Y-70933985D02*
X64092857Y-70600652D01*
X64092857Y-70600652D02*
X64140476Y-70410176D01*
X64140476Y-70410176D02*
X64235714Y-70314938D01*
X64235714Y-70314938D02*
X64330952Y-70267319D01*
X65092857Y-70267319D02*
X65330952Y-71267319D01*
X65330952Y-71267319D02*
X65521428Y-70553033D01*
X65521428Y-70553033D02*
X65711904Y-71267319D01*
X65711904Y-71267319D02*
X65950000Y-70267319D01*
X66330952Y-70886366D02*
X67092857Y-70886366D01*
X68045237Y-71267319D02*
X67569047Y-71267319D01*
X67569047Y-71267319D02*
X67569047Y-70267319D01*
X68378571Y-70743509D02*
X68711904Y-70743509D01*
X68854761Y-71267319D02*
X68378571Y-71267319D01*
X68378571Y-71267319D02*
X68378571Y-70267319D01*
X68378571Y-70267319D02*
X68854761Y-70267319D01*
X69283333Y-71267319D02*
X69283333Y-70267319D01*
X69283333Y-70267319D02*
X69521428Y-70267319D01*
X69521428Y-70267319D02*
X69664285Y-70314938D01*
X69664285Y-70314938D02*
X69759523Y-70410176D01*
X69759523Y-70410176D02*
X69807142Y-70505414D01*
X69807142Y-70505414D02*
X69854761Y-70695890D01*
X69854761Y-70695890D02*
X69854761Y-70838747D01*
X69854761Y-70838747D02*
X69807142Y-71029223D01*
X69807142Y-71029223D02*
X69759523Y-71124461D01*
X69759523Y-71124461D02*
X69664285Y-71219700D01*
X69664285Y-71219700D02*
X69521428Y-71267319D01*
X69521428Y-71267319D02*
X69283333Y-71267319D01*
X70807142Y-71267319D02*
X70235714Y-71267319D01*
X70521428Y-71267319D02*
X70521428Y-70267319D01*
X70521428Y-70267319D02*
X70426190Y-70410176D01*
X70426190Y-70410176D02*
X70330952Y-70505414D01*
X70330952Y-70505414D02*
X70235714Y-70553033D01*
X48109580Y-90916666D02*
X48157200Y-90964285D01*
X48157200Y-90964285D02*
X48204819Y-91107142D01*
X48204819Y-91107142D02*
X48204819Y-91202380D01*
X48204819Y-91202380D02*
X48157200Y-91345237D01*
X48157200Y-91345237D02*
X48061961Y-91440475D01*
X48061961Y-91440475D02*
X47966723Y-91488094D01*
X47966723Y-91488094D02*
X47776247Y-91535713D01*
X47776247Y-91535713D02*
X47633390Y-91535713D01*
X47633390Y-91535713D02*
X47442914Y-91488094D01*
X47442914Y-91488094D02*
X47347676Y-91440475D01*
X47347676Y-91440475D02*
X47252438Y-91345237D01*
X47252438Y-91345237D02*
X47204819Y-91202380D01*
X47204819Y-91202380D02*
X47204819Y-91107142D01*
X47204819Y-91107142D02*
X47252438Y-90964285D01*
X47252438Y-90964285D02*
X47300057Y-90916666D01*
X47538152Y-90059523D02*
X48204819Y-90059523D01*
X47157200Y-90297618D02*
X47871485Y-90535713D01*
X47871485Y-90535713D02*
X47871485Y-89916666D01*
X48109580Y-94616666D02*
X48157200Y-94664285D01*
X48157200Y-94664285D02*
X48204819Y-94807142D01*
X48204819Y-94807142D02*
X48204819Y-94902380D01*
X48204819Y-94902380D02*
X48157200Y-95045237D01*
X48157200Y-95045237D02*
X48061961Y-95140475D01*
X48061961Y-95140475D02*
X47966723Y-95188094D01*
X47966723Y-95188094D02*
X47776247Y-95235713D01*
X47776247Y-95235713D02*
X47633390Y-95235713D01*
X47633390Y-95235713D02*
X47442914Y-95188094D01*
X47442914Y-95188094D02*
X47347676Y-95140475D01*
X47347676Y-95140475D02*
X47252438Y-95045237D01*
X47252438Y-95045237D02*
X47204819Y-94902380D01*
X47204819Y-94902380D02*
X47204819Y-94807142D01*
X47204819Y-94807142D02*
X47252438Y-94664285D01*
X47252438Y-94664285D02*
X47300057Y-94616666D01*
X47633390Y-94045237D02*
X47585771Y-94140475D01*
X47585771Y-94140475D02*
X47538152Y-94188094D01*
X47538152Y-94188094D02*
X47442914Y-94235713D01*
X47442914Y-94235713D02*
X47395295Y-94235713D01*
X47395295Y-94235713D02*
X47300057Y-94188094D01*
X47300057Y-94188094D02*
X47252438Y-94140475D01*
X47252438Y-94140475D02*
X47204819Y-94045237D01*
X47204819Y-94045237D02*
X47204819Y-93854761D01*
X47204819Y-93854761D02*
X47252438Y-93759523D01*
X47252438Y-93759523D02*
X47300057Y-93711904D01*
X47300057Y-93711904D02*
X47395295Y-93664285D01*
X47395295Y-93664285D02*
X47442914Y-93664285D01*
X47442914Y-93664285D02*
X47538152Y-93711904D01*
X47538152Y-93711904D02*
X47585771Y-93759523D01*
X47585771Y-93759523D02*
X47633390Y-93854761D01*
X47633390Y-93854761D02*
X47633390Y-94045237D01*
X47633390Y-94045237D02*
X47681009Y-94140475D01*
X47681009Y-94140475D02*
X47728628Y-94188094D01*
X47728628Y-94188094D02*
X47823866Y-94235713D01*
X47823866Y-94235713D02*
X48014342Y-94235713D01*
X48014342Y-94235713D02*
X48109580Y-94188094D01*
X48109580Y-94188094D02*
X48157200Y-94140475D01*
X48157200Y-94140475D02*
X48204819Y-94045237D01*
X48204819Y-94045237D02*
X48204819Y-93854761D01*
X48204819Y-93854761D02*
X48157200Y-93759523D01*
X48157200Y-93759523D02*
X48109580Y-93711904D01*
X48109580Y-93711904D02*
X48014342Y-93664285D01*
X48014342Y-93664285D02*
X47823866Y-93664285D01*
X47823866Y-93664285D02*
X47728628Y-93711904D01*
X47728628Y-93711904D02*
X47681009Y-93759523D01*
X47681009Y-93759523D02*
X47633390Y-93854761D01*
X92988095Y-60254819D02*
X92988095Y-59254819D01*
X92988095Y-59731009D02*
X93559523Y-59731009D01*
X93559523Y-60254819D02*
X93559523Y-59254819D01*
X94559523Y-60254819D02*
X93988095Y-60254819D01*
X94273809Y-60254819D02*
X94273809Y-59254819D01*
X94273809Y-59254819D02*
X94178571Y-59397676D01*
X94178571Y-59397676D02*
X94083333Y-59492914D01*
X94083333Y-59492914D02*
X93988095Y-59540533D01*
X64879580Y-70355357D02*
X64927200Y-70402976D01*
X64927200Y-70402976D02*
X64974819Y-70545833D01*
X64974819Y-70545833D02*
X64974819Y-70641071D01*
X64974819Y-70641071D02*
X64927200Y-70783928D01*
X64927200Y-70783928D02*
X64831961Y-70879166D01*
X64831961Y-70879166D02*
X64736723Y-70926785D01*
X64736723Y-70926785D02*
X64546247Y-70974404D01*
X64546247Y-70974404D02*
X64403390Y-70974404D01*
X64403390Y-70974404D02*
X64212914Y-70926785D01*
X64212914Y-70926785D02*
X64117676Y-70879166D01*
X64117676Y-70879166D02*
X64022438Y-70783928D01*
X64022438Y-70783928D02*
X63974819Y-70641071D01*
X63974819Y-70641071D02*
X63974819Y-70545833D01*
X63974819Y-70545833D02*
X64022438Y-70402976D01*
X64022438Y-70402976D02*
X64070057Y-70355357D01*
X64974819Y-69402976D02*
X64974819Y-69974404D01*
X64974819Y-69688690D02*
X63974819Y-69688690D01*
X63974819Y-69688690D02*
X64117676Y-69783928D01*
X64117676Y-69783928D02*
X64212914Y-69879166D01*
X64212914Y-69879166D02*
X64260533Y-69974404D01*
X63974819Y-68783928D02*
X63974819Y-68688690D01*
X63974819Y-68688690D02*
X64022438Y-68593452D01*
X64022438Y-68593452D02*
X64070057Y-68545833D01*
X64070057Y-68545833D02*
X64165295Y-68498214D01*
X64165295Y-68498214D02*
X64355771Y-68450595D01*
X64355771Y-68450595D02*
X64593866Y-68450595D01*
X64593866Y-68450595D02*
X64784342Y-68498214D01*
X64784342Y-68498214D02*
X64879580Y-68545833D01*
X64879580Y-68545833D02*
X64927200Y-68593452D01*
X64927200Y-68593452D02*
X64974819Y-68688690D01*
X64974819Y-68688690D02*
X64974819Y-68783928D01*
X64974819Y-68783928D02*
X64927200Y-68879166D01*
X64927200Y-68879166D02*
X64879580Y-68926785D01*
X64879580Y-68926785D02*
X64784342Y-68974404D01*
X64784342Y-68974404D02*
X64593866Y-69022023D01*
X64593866Y-69022023D02*
X64355771Y-69022023D01*
X64355771Y-69022023D02*
X64165295Y-68974404D01*
X64165295Y-68974404D02*
X64070057Y-68926785D01*
X64070057Y-68926785D02*
X64022438Y-68879166D01*
X64022438Y-68879166D02*
X63974819Y-68783928D01*
X65624999Y-91179166D02*
X65148808Y-91512499D01*
X65624999Y-91750594D02*
X64624999Y-91750594D01*
X64624999Y-91750594D02*
X64624999Y-91369642D01*
X64624999Y-91369642D02*
X64672618Y-91274404D01*
X64672618Y-91274404D02*
X64720237Y-91226785D01*
X64720237Y-91226785D02*
X64815475Y-91179166D01*
X64815475Y-91179166D02*
X64958332Y-91179166D01*
X64958332Y-91179166D02*
X65053570Y-91226785D01*
X65053570Y-91226785D02*
X65101189Y-91274404D01*
X65101189Y-91274404D02*
X65148808Y-91369642D01*
X65148808Y-91369642D02*
X65148808Y-91750594D01*
X64720237Y-90798213D02*
X64672618Y-90750594D01*
X64672618Y-90750594D02*
X64624999Y-90655356D01*
X64624999Y-90655356D02*
X64624999Y-90417261D01*
X64624999Y-90417261D02*
X64672618Y-90322023D01*
X64672618Y-90322023D02*
X64720237Y-90274404D01*
X64720237Y-90274404D02*
X64815475Y-90226785D01*
X64815475Y-90226785D02*
X64910713Y-90226785D01*
X64910713Y-90226785D02*
X65053570Y-90274404D01*
X65053570Y-90274404D02*
X65624999Y-90845832D01*
X65624999Y-90845832D02*
X65624999Y-90226785D01*
X77766667Y-63807200D02*
X77909524Y-63854819D01*
X77909524Y-63854819D02*
X78147619Y-63854819D01*
X78147619Y-63854819D02*
X78242857Y-63807200D01*
X78242857Y-63807200D02*
X78290476Y-63759580D01*
X78290476Y-63759580D02*
X78338095Y-63664342D01*
X78338095Y-63664342D02*
X78338095Y-63569104D01*
X78338095Y-63569104D02*
X78290476Y-63473866D01*
X78290476Y-63473866D02*
X78242857Y-63426247D01*
X78242857Y-63426247D02*
X78147619Y-63378628D01*
X78147619Y-63378628D02*
X77957143Y-63331009D01*
X77957143Y-63331009D02*
X77861905Y-63283390D01*
X77861905Y-63283390D02*
X77814286Y-63235771D01*
X77814286Y-63235771D02*
X77766667Y-63140533D01*
X77766667Y-63140533D02*
X77766667Y-63045295D01*
X77766667Y-63045295D02*
X77814286Y-62950057D01*
X77814286Y-62950057D02*
X77861905Y-62902438D01*
X77861905Y-62902438D02*
X77957143Y-62854819D01*
X77957143Y-62854819D02*
X78195238Y-62854819D01*
X78195238Y-62854819D02*
X78338095Y-62902438D01*
X78671429Y-62854819D02*
X78909524Y-63854819D01*
X78909524Y-63854819D02*
X79100000Y-63140533D01*
X79100000Y-63140533D02*
X79290476Y-63854819D01*
X79290476Y-63854819D02*
X79528572Y-62854819D01*
X80338095Y-63188152D02*
X80338095Y-63854819D01*
X80100000Y-62807200D02*
X79861905Y-63521485D01*
X79861905Y-63521485D02*
X80480952Y-63521485D01*
X42204819Y-66297619D02*
X41728628Y-66630952D01*
X42204819Y-66869047D02*
X41204819Y-66869047D01*
X41204819Y-66869047D02*
X41204819Y-66488095D01*
X41204819Y-66488095D02*
X41252438Y-66392857D01*
X41252438Y-66392857D02*
X41300057Y-66345238D01*
X41300057Y-66345238D02*
X41395295Y-66297619D01*
X41395295Y-66297619D02*
X41538152Y-66297619D01*
X41538152Y-66297619D02*
X41633390Y-66345238D01*
X41633390Y-66345238D02*
X41681009Y-66392857D01*
X41681009Y-66392857D02*
X41728628Y-66488095D01*
X41728628Y-66488095D02*
X41728628Y-66869047D01*
X42157200Y-65488095D02*
X42204819Y-65583333D01*
X42204819Y-65583333D02*
X42204819Y-65773809D01*
X42204819Y-65773809D02*
X42157200Y-65869047D01*
X42157200Y-65869047D02*
X42061961Y-65916666D01*
X42061961Y-65916666D02*
X41681009Y-65916666D01*
X41681009Y-65916666D02*
X41585771Y-65869047D01*
X41585771Y-65869047D02*
X41538152Y-65773809D01*
X41538152Y-65773809D02*
X41538152Y-65583333D01*
X41538152Y-65583333D02*
X41585771Y-65488095D01*
X41585771Y-65488095D02*
X41681009Y-65440476D01*
X41681009Y-65440476D02*
X41776247Y-65440476D01*
X41776247Y-65440476D02*
X41871485Y-65916666D01*
X42204819Y-64583333D02*
X41204819Y-64583333D01*
X42157200Y-64583333D02*
X42204819Y-64678571D01*
X42204819Y-64678571D02*
X42204819Y-64869047D01*
X42204819Y-64869047D02*
X42157200Y-64964285D01*
X42157200Y-64964285D02*
X42109580Y-65011904D01*
X42109580Y-65011904D02*
X42014342Y-65059523D01*
X42014342Y-65059523D02*
X41728628Y-65059523D01*
X41728628Y-65059523D02*
X41633390Y-65011904D01*
X41633390Y-65011904D02*
X41585771Y-64964285D01*
X41585771Y-64964285D02*
X41538152Y-64869047D01*
X41538152Y-64869047D02*
X41538152Y-64678571D01*
X41538152Y-64678571D02*
X41585771Y-64583333D01*
X42204819Y-63583333D02*
X42204819Y-64154761D01*
X42204819Y-63869047D02*
X41204819Y-63869047D01*
X41204819Y-63869047D02*
X41347676Y-63964285D01*
X41347676Y-63964285D02*
X41442914Y-64059523D01*
X41442914Y-64059523D02*
X41490533Y-64154761D01*
X60457142Y-84154819D02*
X60123809Y-83678628D01*
X59885714Y-84154819D02*
X59885714Y-83154819D01*
X59885714Y-83154819D02*
X60266666Y-83154819D01*
X60266666Y-83154819D02*
X60361904Y-83202438D01*
X60361904Y-83202438D02*
X60409523Y-83250057D01*
X60409523Y-83250057D02*
X60457142Y-83345295D01*
X60457142Y-83345295D02*
X60457142Y-83488152D01*
X60457142Y-83488152D02*
X60409523Y-83583390D01*
X60409523Y-83583390D02*
X60361904Y-83631009D01*
X60361904Y-83631009D02*
X60266666Y-83678628D01*
X60266666Y-83678628D02*
X59885714Y-83678628D01*
X61409523Y-84154819D02*
X60838095Y-84154819D01*
X61123809Y-84154819D02*
X61123809Y-83154819D01*
X61123809Y-83154819D02*
X61028571Y-83297676D01*
X61028571Y-83297676D02*
X60933333Y-83392914D01*
X60933333Y-83392914D02*
X60838095Y-83440533D01*
X62028571Y-83154819D02*
X62123809Y-83154819D01*
X62123809Y-83154819D02*
X62219047Y-83202438D01*
X62219047Y-83202438D02*
X62266666Y-83250057D01*
X62266666Y-83250057D02*
X62314285Y-83345295D01*
X62314285Y-83345295D02*
X62361904Y-83535771D01*
X62361904Y-83535771D02*
X62361904Y-83773866D01*
X62361904Y-83773866D02*
X62314285Y-83964342D01*
X62314285Y-83964342D02*
X62266666Y-84059580D01*
X62266666Y-84059580D02*
X62219047Y-84107200D01*
X62219047Y-84107200D02*
X62123809Y-84154819D01*
X62123809Y-84154819D02*
X62028571Y-84154819D01*
X62028571Y-84154819D02*
X61933333Y-84107200D01*
X61933333Y-84107200D02*
X61885714Y-84059580D01*
X61885714Y-84059580D02*
X61838095Y-83964342D01*
X61838095Y-83964342D02*
X61790476Y-83773866D01*
X61790476Y-83773866D02*
X61790476Y-83535771D01*
X61790476Y-83535771D02*
X61838095Y-83345295D01*
X61838095Y-83345295D02*
X61885714Y-83250057D01*
X61885714Y-83250057D02*
X61933333Y-83202438D01*
X61933333Y-83202438D02*
X62028571Y-83154819D01*
X49011905Y-87454819D02*
X49011905Y-86454819D01*
X49011905Y-86454819D02*
X49250000Y-86454819D01*
X49250000Y-86454819D02*
X49392857Y-86502438D01*
X49392857Y-86502438D02*
X49488095Y-86597676D01*
X49488095Y-86597676D02*
X49535714Y-86692914D01*
X49535714Y-86692914D02*
X49583333Y-86883390D01*
X49583333Y-86883390D02*
X49583333Y-87026247D01*
X49583333Y-87026247D02*
X49535714Y-87216723D01*
X49535714Y-87216723D02*
X49488095Y-87311961D01*
X49488095Y-87311961D02*
X49392857Y-87407200D01*
X49392857Y-87407200D02*
X49250000Y-87454819D01*
X49250000Y-87454819D02*
X49011905Y-87454819D01*
X50535714Y-87454819D02*
X49964286Y-87454819D01*
X50250000Y-87454819D02*
X50250000Y-86454819D01*
X50250000Y-86454819D02*
X50154762Y-86597676D01*
X50154762Y-86597676D02*
X50059524Y-86692914D01*
X50059524Y-86692914D02*
X49964286Y-86740533D01*
X33488095Y-60254819D02*
X33488095Y-59254819D01*
X33488095Y-59731009D02*
X34059523Y-59731009D01*
X34059523Y-60254819D02*
X34059523Y-59254819D01*
X34964285Y-59588152D02*
X34964285Y-60254819D01*
X34726190Y-59207200D02*
X34488095Y-59921485D01*
X34488095Y-59921485D02*
X35107142Y-59921485D01*
X67933333Y-78404819D02*
X67600000Y-77928628D01*
X67361905Y-78404819D02*
X67361905Y-77404819D01*
X67361905Y-77404819D02*
X67742857Y-77404819D01*
X67742857Y-77404819D02*
X67838095Y-77452438D01*
X67838095Y-77452438D02*
X67885714Y-77500057D01*
X67885714Y-77500057D02*
X67933333Y-77595295D01*
X67933333Y-77595295D02*
X67933333Y-77738152D01*
X67933333Y-77738152D02*
X67885714Y-77833390D01*
X67885714Y-77833390D02*
X67838095Y-77881009D01*
X67838095Y-77881009D02*
X67742857Y-77928628D01*
X67742857Y-77928628D02*
X67361905Y-77928628D01*
X68409524Y-78404819D02*
X68600000Y-78404819D01*
X68600000Y-78404819D02*
X68695238Y-78357200D01*
X68695238Y-78357200D02*
X68742857Y-78309580D01*
X68742857Y-78309580D02*
X68838095Y-78166723D01*
X68838095Y-78166723D02*
X68885714Y-77976247D01*
X68885714Y-77976247D02*
X68885714Y-77595295D01*
X68885714Y-77595295D02*
X68838095Y-77500057D01*
X68838095Y-77500057D02*
X68790476Y-77452438D01*
X68790476Y-77452438D02*
X68695238Y-77404819D01*
X68695238Y-77404819D02*
X68504762Y-77404819D01*
X68504762Y-77404819D02*
X68409524Y-77452438D01*
X68409524Y-77452438D02*
X68361905Y-77500057D01*
X68361905Y-77500057D02*
X68314286Y-77595295D01*
X68314286Y-77595295D02*
X68314286Y-77833390D01*
X68314286Y-77833390D02*
X68361905Y-77928628D01*
X68361905Y-77928628D02*
X68409524Y-77976247D01*
X68409524Y-77976247D02*
X68504762Y-78023866D01*
X68504762Y-78023866D02*
X68695238Y-78023866D01*
X68695238Y-78023866D02*
X68790476Y-77976247D01*
X68790476Y-77976247D02*
X68838095Y-77928628D01*
X68838095Y-77928628D02*
X68885714Y-77833390D01*
X84674642Y-80322319D02*
X84341309Y-79846128D01*
X84103214Y-80322319D02*
X84103214Y-79322319D01*
X84103214Y-79322319D02*
X84484166Y-79322319D01*
X84484166Y-79322319D02*
X84579404Y-79369938D01*
X84579404Y-79369938D02*
X84627023Y-79417557D01*
X84627023Y-79417557D02*
X84674642Y-79512795D01*
X84674642Y-79512795D02*
X84674642Y-79655652D01*
X84674642Y-79655652D02*
X84627023Y-79750890D01*
X84627023Y-79750890D02*
X84579404Y-79798509D01*
X84579404Y-79798509D02*
X84484166Y-79846128D01*
X84484166Y-79846128D02*
X84103214Y-79846128D01*
X85627023Y-80322319D02*
X85055595Y-80322319D01*
X85341309Y-80322319D02*
X85341309Y-79322319D01*
X85341309Y-79322319D02*
X85246071Y-79465176D01*
X85246071Y-79465176D02*
X85150833Y-79560414D01*
X85150833Y-79560414D02*
X85055595Y-79608033D01*
X86484166Y-79655652D02*
X86484166Y-80322319D01*
X86246071Y-79274700D02*
X86007976Y-79988985D01*
X86007976Y-79988985D02*
X86627023Y-79988985D01*
X50154761Y-83800057D02*
X50059523Y-83752438D01*
X50059523Y-83752438D02*
X49964285Y-83657200D01*
X49964285Y-83657200D02*
X49821428Y-83514342D01*
X49821428Y-83514342D02*
X49726190Y-83466723D01*
X49726190Y-83466723D02*
X49630952Y-83466723D01*
X49678571Y-83704819D02*
X49583333Y-83657200D01*
X49583333Y-83657200D02*
X49488095Y-83561961D01*
X49488095Y-83561961D02*
X49440476Y-83371485D01*
X49440476Y-83371485D02*
X49440476Y-83038152D01*
X49440476Y-83038152D02*
X49488095Y-82847676D01*
X49488095Y-82847676D02*
X49583333Y-82752438D01*
X49583333Y-82752438D02*
X49678571Y-82704819D01*
X49678571Y-82704819D02*
X49869047Y-82704819D01*
X49869047Y-82704819D02*
X49964285Y-82752438D01*
X49964285Y-82752438D02*
X50059523Y-82847676D01*
X50059523Y-82847676D02*
X50107142Y-83038152D01*
X50107142Y-83038152D02*
X50107142Y-83371485D01*
X50107142Y-83371485D02*
X50059523Y-83561961D01*
X50059523Y-83561961D02*
X49964285Y-83657200D01*
X49964285Y-83657200D02*
X49869047Y-83704819D01*
X49869047Y-83704819D02*
X49678571Y-83704819D01*
X51059523Y-83704819D02*
X50488095Y-83704819D01*
X50773809Y-83704819D02*
X50773809Y-82704819D01*
X50773809Y-82704819D02*
X50678571Y-82847676D01*
X50678571Y-82847676D02*
X50583333Y-82942914D01*
X50583333Y-82942914D02*
X50488095Y-82990533D01*
X43502438Y-66583333D02*
X43454819Y-66678571D01*
X43454819Y-66678571D02*
X43454819Y-66821428D01*
X43454819Y-66821428D02*
X43502438Y-66964285D01*
X43502438Y-66964285D02*
X43597676Y-67059523D01*
X43597676Y-67059523D02*
X43692914Y-67107142D01*
X43692914Y-67107142D02*
X43883390Y-67154761D01*
X43883390Y-67154761D02*
X44026247Y-67154761D01*
X44026247Y-67154761D02*
X44216723Y-67107142D01*
X44216723Y-67107142D02*
X44311961Y-67059523D01*
X44311961Y-67059523D02*
X44407200Y-66964285D01*
X44407200Y-66964285D02*
X44454819Y-66821428D01*
X44454819Y-66821428D02*
X44454819Y-66726190D01*
X44454819Y-66726190D02*
X44407200Y-66583333D01*
X44407200Y-66583333D02*
X44359580Y-66535714D01*
X44359580Y-66535714D02*
X44026247Y-66535714D01*
X44026247Y-66535714D02*
X44026247Y-66726190D01*
X44454819Y-66107142D02*
X43788152Y-66107142D01*
X43978628Y-66107142D02*
X43883390Y-66059523D01*
X43883390Y-66059523D02*
X43835771Y-66011904D01*
X43835771Y-66011904D02*
X43788152Y-65916666D01*
X43788152Y-65916666D02*
X43788152Y-65821428D01*
X44407200Y-65107142D02*
X44454819Y-65202380D01*
X44454819Y-65202380D02*
X44454819Y-65392856D01*
X44454819Y-65392856D02*
X44407200Y-65488094D01*
X44407200Y-65488094D02*
X44311961Y-65535713D01*
X44311961Y-65535713D02*
X43931009Y-65535713D01*
X43931009Y-65535713D02*
X43835771Y-65488094D01*
X43835771Y-65488094D02*
X43788152Y-65392856D01*
X43788152Y-65392856D02*
X43788152Y-65202380D01*
X43788152Y-65202380D02*
X43835771Y-65107142D01*
X43835771Y-65107142D02*
X43931009Y-65059523D01*
X43931009Y-65059523D02*
X44026247Y-65059523D01*
X44026247Y-65059523D02*
X44121485Y-65535713D01*
X44407200Y-64249999D02*
X44454819Y-64345237D01*
X44454819Y-64345237D02*
X44454819Y-64535713D01*
X44454819Y-64535713D02*
X44407200Y-64630951D01*
X44407200Y-64630951D02*
X44311961Y-64678570D01*
X44311961Y-64678570D02*
X43931009Y-64678570D01*
X43931009Y-64678570D02*
X43835771Y-64630951D01*
X43835771Y-64630951D02*
X43788152Y-64535713D01*
X43788152Y-64535713D02*
X43788152Y-64345237D01*
X43788152Y-64345237D02*
X43835771Y-64249999D01*
X43835771Y-64249999D02*
X43931009Y-64202380D01*
X43931009Y-64202380D02*
X44026247Y-64202380D01*
X44026247Y-64202380D02*
X44121485Y-64678570D01*
X43788152Y-63773808D02*
X44454819Y-63773808D01*
X43883390Y-63773808D02*
X43835771Y-63726189D01*
X43835771Y-63726189D02*
X43788152Y-63630951D01*
X43788152Y-63630951D02*
X43788152Y-63488094D01*
X43788152Y-63488094D02*
X43835771Y-63392856D01*
X43835771Y-63392856D02*
X43931009Y-63345237D01*
X43931009Y-63345237D02*
X44454819Y-63345237D01*
X44454819Y-62345237D02*
X44454819Y-62916665D01*
X44454819Y-62630951D02*
X43454819Y-62630951D01*
X43454819Y-62630951D02*
X43597676Y-62726189D01*
X43597676Y-62726189D02*
X43692914Y-62821427D01*
X43692914Y-62821427D02*
X43740533Y-62916665D01*
X72913095Y-77919819D02*
X72913095Y-78729342D01*
X72913095Y-78729342D02*
X72960714Y-78824580D01*
X72960714Y-78824580D02*
X73008333Y-78872200D01*
X73008333Y-78872200D02*
X73103571Y-78919819D01*
X73103571Y-78919819D02*
X73294047Y-78919819D01*
X73294047Y-78919819D02*
X73389285Y-78872200D01*
X73389285Y-78872200D02*
X73436904Y-78824580D01*
X73436904Y-78824580D02*
X73484523Y-78729342D01*
X73484523Y-78729342D02*
X73484523Y-77919819D01*
X74389285Y-77919819D02*
X74198809Y-77919819D01*
X74198809Y-77919819D02*
X74103571Y-77967438D01*
X74103571Y-77967438D02*
X74055952Y-78015057D01*
X74055952Y-78015057D02*
X73960714Y-78157914D01*
X73960714Y-78157914D02*
X73913095Y-78348390D01*
X73913095Y-78348390D02*
X73913095Y-78729342D01*
X73913095Y-78729342D02*
X73960714Y-78824580D01*
X73960714Y-78824580D02*
X74008333Y-78872200D01*
X74008333Y-78872200D02*
X74103571Y-78919819D01*
X74103571Y-78919819D02*
X74294047Y-78919819D01*
X74294047Y-78919819D02*
X74389285Y-78872200D01*
X74389285Y-78872200D02*
X74436904Y-78824580D01*
X74436904Y-78824580D02*
X74484523Y-78729342D01*
X74484523Y-78729342D02*
X74484523Y-78491247D01*
X74484523Y-78491247D02*
X74436904Y-78396009D01*
X74436904Y-78396009D02*
X74389285Y-78348390D01*
X74389285Y-78348390D02*
X74294047Y-78300771D01*
X74294047Y-78300771D02*
X74103571Y-78300771D01*
X74103571Y-78300771D02*
X74008333Y-78348390D01*
X74008333Y-78348390D02*
X73960714Y-78396009D01*
X73960714Y-78396009D02*
X73913095Y-78491247D01*
X43954819Y-83166666D02*
X43478628Y-83499999D01*
X43954819Y-83738094D02*
X42954819Y-83738094D01*
X42954819Y-83738094D02*
X42954819Y-83357142D01*
X42954819Y-83357142D02*
X43002438Y-83261904D01*
X43002438Y-83261904D02*
X43050057Y-83214285D01*
X43050057Y-83214285D02*
X43145295Y-83166666D01*
X43145295Y-83166666D02*
X43288152Y-83166666D01*
X43288152Y-83166666D02*
X43383390Y-83214285D01*
X43383390Y-83214285D02*
X43431009Y-83261904D01*
X43431009Y-83261904D02*
X43478628Y-83357142D01*
X43478628Y-83357142D02*
X43478628Y-83738094D01*
X42954819Y-82261904D02*
X42954819Y-82738094D01*
X42954819Y-82738094D02*
X43431009Y-82785713D01*
X43431009Y-82785713D02*
X43383390Y-82738094D01*
X43383390Y-82738094D02*
X43335771Y-82642856D01*
X43335771Y-82642856D02*
X43335771Y-82404761D01*
X43335771Y-82404761D02*
X43383390Y-82309523D01*
X43383390Y-82309523D02*
X43431009Y-82261904D01*
X43431009Y-82261904D02*
X43526247Y-82214285D01*
X43526247Y-82214285D02*
X43764342Y-82214285D01*
X43764342Y-82214285D02*
X43859580Y-82261904D01*
X43859580Y-82261904D02*
X43907200Y-82309523D01*
X43907200Y-82309523D02*
X43954819Y-82404761D01*
X43954819Y-82404761D02*
X43954819Y-82642856D01*
X43954819Y-82642856D02*
X43907200Y-82738094D01*
X43907200Y-82738094D02*
X43859580Y-82785713D01*
X57499760Y-90891666D02*
X57547380Y-90939285D01*
X57547380Y-90939285D02*
X57594999Y-91082142D01*
X57594999Y-91082142D02*
X57594999Y-91177380D01*
X57594999Y-91177380D02*
X57547380Y-91320237D01*
X57547380Y-91320237D02*
X57452141Y-91415475D01*
X57452141Y-91415475D02*
X57356903Y-91463094D01*
X57356903Y-91463094D02*
X57166427Y-91510713D01*
X57166427Y-91510713D02*
X57023570Y-91510713D01*
X57023570Y-91510713D02*
X56833094Y-91463094D01*
X56833094Y-91463094D02*
X56737856Y-91415475D01*
X56737856Y-91415475D02*
X56642618Y-91320237D01*
X56642618Y-91320237D02*
X56594999Y-91177380D01*
X56594999Y-91177380D02*
X56594999Y-91082142D01*
X56594999Y-91082142D02*
X56642618Y-90939285D01*
X56642618Y-90939285D02*
X56690237Y-90891666D01*
X56690237Y-90510713D02*
X56642618Y-90463094D01*
X56642618Y-90463094D02*
X56594999Y-90367856D01*
X56594999Y-90367856D02*
X56594999Y-90129761D01*
X56594999Y-90129761D02*
X56642618Y-90034523D01*
X56642618Y-90034523D02*
X56690237Y-89986904D01*
X56690237Y-89986904D02*
X56785475Y-89939285D01*
X56785475Y-89939285D02*
X56880713Y-89939285D01*
X56880713Y-89939285D02*
X57023570Y-89986904D01*
X57023570Y-89986904D02*
X57594999Y-90558332D01*
X57594999Y-90558332D02*
X57594999Y-89939285D01*
X61516667Y-63807200D02*
X61659524Y-63854819D01*
X61659524Y-63854819D02*
X61897619Y-63854819D01*
X61897619Y-63854819D02*
X61992857Y-63807200D01*
X61992857Y-63807200D02*
X62040476Y-63759580D01*
X62040476Y-63759580D02*
X62088095Y-63664342D01*
X62088095Y-63664342D02*
X62088095Y-63569104D01*
X62088095Y-63569104D02*
X62040476Y-63473866D01*
X62040476Y-63473866D02*
X61992857Y-63426247D01*
X61992857Y-63426247D02*
X61897619Y-63378628D01*
X61897619Y-63378628D02*
X61707143Y-63331009D01*
X61707143Y-63331009D02*
X61611905Y-63283390D01*
X61611905Y-63283390D02*
X61564286Y-63235771D01*
X61564286Y-63235771D02*
X61516667Y-63140533D01*
X61516667Y-63140533D02*
X61516667Y-63045295D01*
X61516667Y-63045295D02*
X61564286Y-62950057D01*
X61564286Y-62950057D02*
X61611905Y-62902438D01*
X61611905Y-62902438D02*
X61707143Y-62854819D01*
X61707143Y-62854819D02*
X61945238Y-62854819D01*
X61945238Y-62854819D02*
X62088095Y-62902438D01*
X62421429Y-62854819D02*
X62659524Y-63854819D01*
X62659524Y-63854819D02*
X62850000Y-63140533D01*
X62850000Y-63140533D02*
X63040476Y-63854819D01*
X63040476Y-63854819D02*
X63278572Y-62854819D01*
X64183333Y-63854819D02*
X63611905Y-63854819D01*
X63897619Y-63854819D02*
X63897619Y-62854819D01*
X63897619Y-62854819D02*
X63802381Y-62997676D01*
X63802381Y-62997676D02*
X63707143Y-63092914D01*
X63707143Y-63092914D02*
X63611905Y-63140533D01*
X67104819Y-66611904D02*
X67914342Y-66611904D01*
X67914342Y-66611904D02*
X68009580Y-66564285D01*
X68009580Y-66564285D02*
X68057200Y-66516666D01*
X68057200Y-66516666D02*
X68104819Y-66421428D01*
X68104819Y-66421428D02*
X68104819Y-66230952D01*
X68104819Y-66230952D02*
X68057200Y-66135714D01*
X68057200Y-66135714D02*
X68009580Y-66088095D01*
X68009580Y-66088095D02*
X67914342Y-66040476D01*
X67914342Y-66040476D02*
X67104819Y-66040476D01*
X67104819Y-65659523D02*
X67104819Y-64992857D01*
X67104819Y-64992857D02*
X68104819Y-65421428D01*
X86644819Y-97318094D02*
X85644819Y-97318094D01*
X85644819Y-97318094D02*
X85644819Y-97079999D01*
X85644819Y-97079999D02*
X85692438Y-96937142D01*
X85692438Y-96937142D02*
X85787676Y-96841904D01*
X85787676Y-96841904D02*
X85882914Y-96794285D01*
X85882914Y-96794285D02*
X86073390Y-96746666D01*
X86073390Y-96746666D02*
X86216247Y-96746666D01*
X86216247Y-96746666D02*
X86406723Y-96794285D01*
X86406723Y-96794285D02*
X86501961Y-96841904D01*
X86501961Y-96841904D02*
X86597200Y-96937142D01*
X86597200Y-96937142D02*
X86644819Y-97079999D01*
X86644819Y-97079999D02*
X86644819Y-97318094D01*
X85644819Y-96413332D02*
X85644819Y-95794285D01*
X85644819Y-95794285D02*
X86025771Y-96127618D01*
X86025771Y-96127618D02*
X86025771Y-95984761D01*
X86025771Y-95984761D02*
X86073390Y-95889523D01*
X86073390Y-95889523D02*
X86121009Y-95841904D01*
X86121009Y-95841904D02*
X86216247Y-95794285D01*
X86216247Y-95794285D02*
X86454342Y-95794285D01*
X86454342Y-95794285D02*
X86549580Y-95841904D01*
X86549580Y-95841904D02*
X86597200Y-95889523D01*
X86597200Y-95889523D02*
X86644819Y-95984761D01*
X86644819Y-95984761D02*
X86644819Y-96270475D01*
X86644819Y-96270475D02*
X86597200Y-96365713D01*
X86597200Y-96365713D02*
X86549580Y-96413332D01*
X51583333Y-91204819D02*
X51250000Y-90728628D01*
X51011905Y-91204819D02*
X51011905Y-90204819D01*
X51011905Y-90204819D02*
X51392857Y-90204819D01*
X51392857Y-90204819D02*
X51488095Y-90252438D01*
X51488095Y-90252438D02*
X51535714Y-90300057D01*
X51535714Y-90300057D02*
X51583333Y-90395295D01*
X51583333Y-90395295D02*
X51583333Y-90538152D01*
X51583333Y-90538152D02*
X51535714Y-90633390D01*
X51535714Y-90633390D02*
X51488095Y-90681009D01*
X51488095Y-90681009D02*
X51392857Y-90728628D01*
X51392857Y-90728628D02*
X51011905Y-90728628D01*
X52154762Y-90633390D02*
X52059524Y-90585771D01*
X52059524Y-90585771D02*
X52011905Y-90538152D01*
X52011905Y-90538152D02*
X51964286Y-90442914D01*
X51964286Y-90442914D02*
X51964286Y-90395295D01*
X51964286Y-90395295D02*
X52011905Y-90300057D01*
X52011905Y-90300057D02*
X52059524Y-90252438D01*
X52059524Y-90252438D02*
X52154762Y-90204819D01*
X52154762Y-90204819D02*
X52345238Y-90204819D01*
X52345238Y-90204819D02*
X52440476Y-90252438D01*
X52440476Y-90252438D02*
X52488095Y-90300057D01*
X52488095Y-90300057D02*
X52535714Y-90395295D01*
X52535714Y-90395295D02*
X52535714Y-90442914D01*
X52535714Y-90442914D02*
X52488095Y-90538152D01*
X52488095Y-90538152D02*
X52440476Y-90585771D01*
X52440476Y-90585771D02*
X52345238Y-90633390D01*
X52345238Y-90633390D02*
X52154762Y-90633390D01*
X52154762Y-90633390D02*
X52059524Y-90681009D01*
X52059524Y-90681009D02*
X52011905Y-90728628D01*
X52011905Y-90728628D02*
X51964286Y-90823866D01*
X51964286Y-90823866D02*
X51964286Y-91014342D01*
X51964286Y-91014342D02*
X52011905Y-91109580D01*
X52011905Y-91109580D02*
X52059524Y-91157200D01*
X52059524Y-91157200D02*
X52154762Y-91204819D01*
X52154762Y-91204819D02*
X52345238Y-91204819D01*
X52345238Y-91204819D02*
X52440476Y-91157200D01*
X52440476Y-91157200D02*
X52488095Y-91109580D01*
X52488095Y-91109580D02*
X52535714Y-91014342D01*
X52535714Y-91014342D02*
X52535714Y-90823866D01*
X52535714Y-90823866D02*
X52488095Y-90728628D01*
X52488095Y-90728628D02*
X52440476Y-90681009D01*
X52440476Y-90681009D02*
X52345238Y-90633390D01*
X63957142Y-84154819D02*
X63623809Y-83678628D01*
X63385714Y-84154819D02*
X63385714Y-83154819D01*
X63385714Y-83154819D02*
X63766666Y-83154819D01*
X63766666Y-83154819D02*
X63861904Y-83202438D01*
X63861904Y-83202438D02*
X63909523Y-83250057D01*
X63909523Y-83250057D02*
X63957142Y-83345295D01*
X63957142Y-83345295D02*
X63957142Y-83488152D01*
X63957142Y-83488152D02*
X63909523Y-83583390D01*
X63909523Y-83583390D02*
X63861904Y-83631009D01*
X63861904Y-83631009D02*
X63766666Y-83678628D01*
X63766666Y-83678628D02*
X63385714Y-83678628D01*
X64909523Y-84154819D02*
X64338095Y-84154819D01*
X64623809Y-84154819D02*
X64623809Y-83154819D01*
X64623809Y-83154819D02*
X64528571Y-83297676D01*
X64528571Y-83297676D02*
X64433333Y-83392914D01*
X64433333Y-83392914D02*
X64338095Y-83440533D01*
X65861904Y-84154819D02*
X65290476Y-84154819D01*
X65576190Y-84154819D02*
X65576190Y-83154819D01*
X65576190Y-83154819D02*
X65480952Y-83297676D01*
X65480952Y-83297676D02*
X65385714Y-83392914D01*
X65385714Y-83392914D02*
X65290476Y-83440533D01*
X37675009Y-96938485D02*
X37600018Y-96900390D01*
X37600018Y-96900390D02*
X37525028Y-96824200D01*
X37525028Y-96824200D02*
X37412542Y-96709914D01*
X37412542Y-96709914D02*
X37337551Y-96671819D01*
X37337551Y-96671819D02*
X37262560Y-96671819D01*
X37300056Y-96862295D02*
X37225065Y-96824200D01*
X37225065Y-96824200D02*
X37150074Y-96748009D01*
X37150074Y-96748009D02*
X37112579Y-96595628D01*
X37112579Y-96595628D02*
X37112579Y-96328961D01*
X37112579Y-96328961D02*
X37150074Y-96176580D01*
X37150074Y-96176580D02*
X37225065Y-96100390D01*
X37225065Y-96100390D02*
X37300056Y-96062295D01*
X37300056Y-96062295D02*
X37450037Y-96062295D01*
X37450037Y-96062295D02*
X37525028Y-96100390D01*
X37525028Y-96100390D02*
X37600018Y-96176580D01*
X37600018Y-96176580D02*
X37637514Y-96328961D01*
X37637514Y-96328961D02*
X37637514Y-96595628D01*
X37637514Y-96595628D02*
X37600018Y-96748009D01*
X37600018Y-96748009D02*
X37525028Y-96824200D01*
X37525028Y-96824200D02*
X37450037Y-96862295D01*
X37450037Y-96862295D02*
X37300056Y-96862295D01*
X37937476Y-96138485D02*
X37974971Y-96100390D01*
X37974971Y-96100390D02*
X38049962Y-96062295D01*
X38049962Y-96062295D02*
X38237439Y-96062295D01*
X38237439Y-96062295D02*
X38312429Y-96100390D01*
X38312429Y-96100390D02*
X38349925Y-96138485D01*
X38349925Y-96138485D02*
X38387420Y-96214676D01*
X38387420Y-96214676D02*
X38387420Y-96290866D01*
X38387420Y-96290866D02*
X38349925Y-96405152D01*
X38349925Y-96405152D02*
X37899981Y-96862295D01*
X37899981Y-96862295D02*
X38387420Y-96862295D01*
X68491723Y-96211428D02*
X68491723Y-95830475D01*
X68720295Y-96287618D02*
X67920295Y-96020951D01*
X67920295Y-96020951D02*
X68720295Y-95754285D01*
X68720295Y-95068571D02*
X68720295Y-95525714D01*
X68720295Y-95297142D02*
X67920295Y-95297142D01*
X67920295Y-95297142D02*
X68034580Y-95373333D01*
X68034580Y-95373333D02*
X68110771Y-95449523D01*
X68110771Y-95449523D02*
X68148866Y-95525714D01*
X61633333Y-69892080D02*
X61585714Y-69939700D01*
X61585714Y-69939700D02*
X61442857Y-69987319D01*
X61442857Y-69987319D02*
X61347619Y-69987319D01*
X61347619Y-69987319D02*
X61204762Y-69939700D01*
X61204762Y-69939700D02*
X61109524Y-69844461D01*
X61109524Y-69844461D02*
X61061905Y-69749223D01*
X61061905Y-69749223D02*
X61014286Y-69558747D01*
X61014286Y-69558747D02*
X61014286Y-69415890D01*
X61014286Y-69415890D02*
X61061905Y-69225414D01*
X61061905Y-69225414D02*
X61109524Y-69130176D01*
X61109524Y-69130176D02*
X61204762Y-69034938D01*
X61204762Y-69034938D02*
X61347619Y-68987319D01*
X61347619Y-68987319D02*
X61442857Y-68987319D01*
X61442857Y-68987319D02*
X61585714Y-69034938D01*
X61585714Y-69034938D02*
X61633333Y-69082557D01*
X61966667Y-68987319D02*
X62633333Y-68987319D01*
X62633333Y-68987319D02*
X62204762Y-69987319D01*
X50109580Y-72666666D02*
X50157200Y-72714285D01*
X50157200Y-72714285D02*
X50204819Y-72857142D01*
X50204819Y-72857142D02*
X50204819Y-72952380D01*
X50204819Y-72952380D02*
X50157200Y-73095237D01*
X50157200Y-73095237D02*
X50061961Y-73190475D01*
X50061961Y-73190475D02*
X49966723Y-73238094D01*
X49966723Y-73238094D02*
X49776247Y-73285713D01*
X49776247Y-73285713D02*
X49633390Y-73285713D01*
X49633390Y-73285713D02*
X49442914Y-73238094D01*
X49442914Y-73238094D02*
X49347676Y-73190475D01*
X49347676Y-73190475D02*
X49252438Y-73095237D01*
X49252438Y-73095237D02*
X49204819Y-72952380D01*
X49204819Y-72952380D02*
X49204819Y-72857142D01*
X49204819Y-72857142D02*
X49252438Y-72714285D01*
X49252438Y-72714285D02*
X49300057Y-72666666D01*
X49204819Y-72333332D02*
X49204819Y-71714285D01*
X49204819Y-71714285D02*
X49585771Y-72047618D01*
X49585771Y-72047618D02*
X49585771Y-71904761D01*
X49585771Y-71904761D02*
X49633390Y-71809523D01*
X49633390Y-71809523D02*
X49681009Y-71761904D01*
X49681009Y-71761904D02*
X49776247Y-71714285D01*
X49776247Y-71714285D02*
X50014342Y-71714285D01*
X50014342Y-71714285D02*
X50109580Y-71761904D01*
X50109580Y-71761904D02*
X50157200Y-71809523D01*
X50157200Y-71809523D02*
X50204819Y-71904761D01*
X50204819Y-71904761D02*
X50204819Y-72190475D01*
X50204819Y-72190475D02*
X50157200Y-72285713D01*
X50157200Y-72285713D02*
X50109580Y-72333332D01*
X72207142Y-62404819D02*
X71873809Y-61928628D01*
X71635714Y-62404819D02*
X71635714Y-61404819D01*
X71635714Y-61404819D02*
X72016666Y-61404819D01*
X72016666Y-61404819D02*
X72111904Y-61452438D01*
X72111904Y-61452438D02*
X72159523Y-61500057D01*
X72159523Y-61500057D02*
X72207142Y-61595295D01*
X72207142Y-61595295D02*
X72207142Y-61738152D01*
X72207142Y-61738152D02*
X72159523Y-61833390D01*
X72159523Y-61833390D02*
X72111904Y-61881009D01*
X72111904Y-61881009D02*
X72016666Y-61928628D01*
X72016666Y-61928628D02*
X71635714Y-61928628D01*
X73159523Y-62404819D02*
X72588095Y-62404819D01*
X72873809Y-62404819D02*
X72873809Y-61404819D01*
X72873809Y-61404819D02*
X72778571Y-61547676D01*
X72778571Y-61547676D02*
X72683333Y-61642914D01*
X72683333Y-61642914D02*
X72588095Y-61690533D01*
X73492857Y-61404819D02*
X74111904Y-61404819D01*
X74111904Y-61404819D02*
X73778571Y-61785771D01*
X73778571Y-61785771D02*
X73921428Y-61785771D01*
X73921428Y-61785771D02*
X74016666Y-61833390D01*
X74016666Y-61833390D02*
X74064285Y-61881009D01*
X74064285Y-61881009D02*
X74111904Y-61976247D01*
X74111904Y-61976247D02*
X74111904Y-62214342D01*
X74111904Y-62214342D02*
X74064285Y-62309580D01*
X74064285Y-62309580D02*
X74016666Y-62357200D01*
X74016666Y-62357200D02*
X73921428Y-62404819D01*
X73921428Y-62404819D02*
X73635714Y-62404819D01*
X73635714Y-62404819D02*
X73540476Y-62357200D01*
X73540476Y-62357200D02*
X73492857Y-62309580D01*
X79957142Y-87389580D02*
X79909523Y-87437200D01*
X79909523Y-87437200D02*
X79766666Y-87484819D01*
X79766666Y-87484819D02*
X79671428Y-87484819D01*
X79671428Y-87484819D02*
X79528571Y-87437200D01*
X79528571Y-87437200D02*
X79433333Y-87341961D01*
X79433333Y-87341961D02*
X79385714Y-87246723D01*
X79385714Y-87246723D02*
X79338095Y-87056247D01*
X79338095Y-87056247D02*
X79338095Y-86913390D01*
X79338095Y-86913390D02*
X79385714Y-86722914D01*
X79385714Y-86722914D02*
X79433333Y-86627676D01*
X79433333Y-86627676D02*
X79528571Y-86532438D01*
X79528571Y-86532438D02*
X79671428Y-86484819D01*
X79671428Y-86484819D02*
X79766666Y-86484819D01*
X79766666Y-86484819D02*
X79909523Y-86532438D01*
X79909523Y-86532438D02*
X79957142Y-86580057D01*
X80909523Y-87484819D02*
X80338095Y-87484819D01*
X80623809Y-87484819D02*
X80623809Y-86484819D01*
X80623809Y-86484819D02*
X80528571Y-86627676D01*
X80528571Y-86627676D02*
X80433333Y-86722914D01*
X80433333Y-86722914D02*
X80338095Y-86770533D01*
X81861904Y-87484819D02*
X81290476Y-87484819D01*
X81576190Y-87484819D02*
X81576190Y-86484819D01*
X81576190Y-86484819D02*
X81480952Y-86627676D01*
X81480952Y-86627676D02*
X81385714Y-86722914D01*
X81385714Y-86722914D02*
X81290476Y-86770533D01*
X45666667Y-101657200D02*
X45809524Y-101704819D01*
X45809524Y-101704819D02*
X46047619Y-101704819D01*
X46047619Y-101704819D02*
X46142857Y-101657200D01*
X46142857Y-101657200D02*
X46190476Y-101609580D01*
X46190476Y-101609580D02*
X46238095Y-101514342D01*
X46238095Y-101514342D02*
X46238095Y-101419104D01*
X46238095Y-101419104D02*
X46190476Y-101323866D01*
X46190476Y-101323866D02*
X46142857Y-101276247D01*
X46142857Y-101276247D02*
X46047619Y-101228628D01*
X46047619Y-101228628D02*
X45857143Y-101181009D01*
X45857143Y-101181009D02*
X45761905Y-101133390D01*
X45761905Y-101133390D02*
X45714286Y-101085771D01*
X45714286Y-101085771D02*
X45666667Y-100990533D01*
X45666667Y-100990533D02*
X45666667Y-100895295D01*
X45666667Y-100895295D02*
X45714286Y-100800057D01*
X45714286Y-100800057D02*
X45761905Y-100752438D01*
X45761905Y-100752438D02*
X45857143Y-100704819D01*
X45857143Y-100704819D02*
X46095238Y-100704819D01*
X46095238Y-100704819D02*
X46238095Y-100752438D01*
X46571429Y-100704819D02*
X46809524Y-101704819D01*
X46809524Y-101704819D02*
X47000000Y-100990533D01*
X47000000Y-100990533D02*
X47190476Y-101704819D01*
X47190476Y-101704819D02*
X47428572Y-100704819D01*
X47714286Y-100704819D02*
X48333333Y-100704819D01*
X48333333Y-100704819D02*
X48000000Y-101085771D01*
X48000000Y-101085771D02*
X48142857Y-101085771D01*
X48142857Y-101085771D02*
X48238095Y-101133390D01*
X48238095Y-101133390D02*
X48285714Y-101181009D01*
X48285714Y-101181009D02*
X48333333Y-101276247D01*
X48333333Y-101276247D02*
X48333333Y-101514342D01*
X48333333Y-101514342D02*
X48285714Y-101609580D01*
X48285714Y-101609580D02*
X48238095Y-101657200D01*
X48238095Y-101657200D02*
X48142857Y-101704819D01*
X48142857Y-101704819D02*
X47857143Y-101704819D01*
X47857143Y-101704819D02*
X47761905Y-101657200D01*
X47761905Y-101657200D02*
X47714286Y-101609580D01*
X84772319Y-77129404D02*
X85581842Y-77129404D01*
X85581842Y-77129404D02*
X85677080Y-77081785D01*
X85677080Y-77081785D02*
X85724700Y-77034166D01*
X85724700Y-77034166D02*
X85772319Y-76938928D01*
X85772319Y-76938928D02*
X85772319Y-76748452D01*
X85772319Y-76748452D02*
X85724700Y-76653214D01*
X85724700Y-76653214D02*
X85677080Y-76605595D01*
X85677080Y-76605595D02*
X85581842Y-76557976D01*
X85581842Y-76557976D02*
X84772319Y-76557976D01*
X84867557Y-76129404D02*
X84819938Y-76081785D01*
X84819938Y-76081785D02*
X84772319Y-75986547D01*
X84772319Y-75986547D02*
X84772319Y-75748452D01*
X84772319Y-75748452D02*
X84819938Y-75653214D01*
X84819938Y-75653214D02*
X84867557Y-75605595D01*
X84867557Y-75605595D02*
X84962795Y-75557976D01*
X84962795Y-75557976D02*
X85058033Y-75557976D01*
X85058033Y-75557976D02*
X85200890Y-75605595D01*
X85200890Y-75605595D02*
X85772319Y-76177023D01*
X85772319Y-76177023D02*
X85772319Y-75557976D01*
X39802319Y-90938094D02*
X38802319Y-90938094D01*
X38802319Y-90938094D02*
X38802319Y-90557142D01*
X38802319Y-90557142D02*
X38849938Y-90461904D01*
X38849938Y-90461904D02*
X38897557Y-90414285D01*
X38897557Y-90414285D02*
X38992795Y-90366666D01*
X38992795Y-90366666D02*
X39135652Y-90366666D01*
X39135652Y-90366666D02*
X39230890Y-90414285D01*
X39230890Y-90414285D02*
X39278509Y-90461904D01*
X39278509Y-90461904D02*
X39326128Y-90557142D01*
X39326128Y-90557142D02*
X39326128Y-90938094D01*
X39802319Y-89414285D02*
X39802319Y-89985713D01*
X39802319Y-89699999D02*
X38802319Y-89699999D01*
X38802319Y-89699999D02*
X38945176Y-89795237D01*
X38945176Y-89795237D02*
X39040414Y-89890475D01*
X39040414Y-89890475D02*
X39088033Y-89985713D01*
X83738095Y-98504819D02*
X83738095Y-97504819D01*
X83738095Y-97981009D02*
X84309523Y-97981009D01*
X84309523Y-98504819D02*
X84309523Y-97504819D01*
X84738095Y-97600057D02*
X84785714Y-97552438D01*
X84785714Y-97552438D02*
X84880952Y-97504819D01*
X84880952Y-97504819D02*
X85119047Y-97504819D01*
X85119047Y-97504819D02*
X85214285Y-97552438D01*
X85214285Y-97552438D02*
X85261904Y-97600057D01*
X85261904Y-97600057D02*
X85309523Y-97695295D01*
X85309523Y-97695295D02*
X85309523Y-97790533D01*
X85309523Y-97790533D02*
X85261904Y-97933390D01*
X85261904Y-97933390D02*
X84690476Y-98504819D01*
X84690476Y-98504819D02*
X85309523Y-98504819D01*
X42250595Y-88254819D02*
X42250595Y-89064342D01*
X42250595Y-89064342D02*
X42298214Y-89159580D01*
X42298214Y-89159580D02*
X42345833Y-89207200D01*
X42345833Y-89207200D02*
X42441071Y-89254819D01*
X42441071Y-89254819D02*
X42631547Y-89254819D01*
X42631547Y-89254819D02*
X42726785Y-89207200D01*
X42726785Y-89207200D02*
X42774404Y-89159580D01*
X42774404Y-89159580D02*
X42822023Y-89064342D01*
X42822023Y-89064342D02*
X42822023Y-88254819D01*
X43822023Y-89254819D02*
X43250595Y-89254819D01*
X43536309Y-89254819D02*
X43536309Y-88254819D01*
X43536309Y-88254819D02*
X43441071Y-88397676D01*
X43441071Y-88397676D02*
X43345833Y-88492914D01*
X43345833Y-88492914D02*
X43250595Y-88540533D01*
X67883333Y-80279580D02*
X67835714Y-80327200D01*
X67835714Y-80327200D02*
X67692857Y-80374819D01*
X67692857Y-80374819D02*
X67597619Y-80374819D01*
X67597619Y-80374819D02*
X67454762Y-80327200D01*
X67454762Y-80327200D02*
X67359524Y-80231961D01*
X67359524Y-80231961D02*
X67311905Y-80136723D01*
X67311905Y-80136723D02*
X67264286Y-79946247D01*
X67264286Y-79946247D02*
X67264286Y-79803390D01*
X67264286Y-79803390D02*
X67311905Y-79612914D01*
X67311905Y-79612914D02*
X67359524Y-79517676D01*
X67359524Y-79517676D02*
X67454762Y-79422438D01*
X67454762Y-79422438D02*
X67597619Y-79374819D01*
X67597619Y-79374819D02*
X67692857Y-79374819D01*
X67692857Y-79374819D02*
X67835714Y-79422438D01*
X67835714Y-79422438D02*
X67883333Y-79470057D01*
X68359524Y-80374819D02*
X68550000Y-80374819D01*
X68550000Y-80374819D02*
X68645238Y-80327200D01*
X68645238Y-80327200D02*
X68692857Y-80279580D01*
X68692857Y-80279580D02*
X68788095Y-80136723D01*
X68788095Y-80136723D02*
X68835714Y-79946247D01*
X68835714Y-79946247D02*
X68835714Y-79565295D01*
X68835714Y-79565295D02*
X68788095Y-79470057D01*
X68788095Y-79470057D02*
X68740476Y-79422438D01*
X68740476Y-79422438D02*
X68645238Y-79374819D01*
X68645238Y-79374819D02*
X68454762Y-79374819D01*
X68454762Y-79374819D02*
X68359524Y-79422438D01*
X68359524Y-79422438D02*
X68311905Y-79470057D01*
X68311905Y-79470057D02*
X68264286Y-79565295D01*
X68264286Y-79565295D02*
X68264286Y-79803390D01*
X68264286Y-79803390D02*
X68311905Y-79898628D01*
X68311905Y-79898628D02*
X68359524Y-79946247D01*
X68359524Y-79946247D02*
X68454762Y-79993866D01*
X68454762Y-79993866D02*
X68645238Y-79993866D01*
X68645238Y-79993866D02*
X68740476Y-79946247D01*
X68740476Y-79946247D02*
X68788095Y-79898628D01*
X68788095Y-79898628D02*
X68835714Y-79803390D01*
X47454819Y-69642857D02*
X46978628Y-69976190D01*
X47454819Y-70214285D02*
X46454819Y-70214285D01*
X46454819Y-70214285D02*
X46454819Y-69833333D01*
X46454819Y-69833333D02*
X46502438Y-69738095D01*
X46502438Y-69738095D02*
X46550057Y-69690476D01*
X46550057Y-69690476D02*
X46645295Y-69642857D01*
X46645295Y-69642857D02*
X46788152Y-69642857D01*
X46788152Y-69642857D02*
X46883390Y-69690476D01*
X46883390Y-69690476D02*
X46931009Y-69738095D01*
X46931009Y-69738095D02*
X46978628Y-69833333D01*
X46978628Y-69833333D02*
X46978628Y-70214285D01*
X47454819Y-68690476D02*
X47454819Y-69261904D01*
X47454819Y-68976190D02*
X46454819Y-68976190D01*
X46454819Y-68976190D02*
X46597676Y-69071428D01*
X46597676Y-69071428D02*
X46692914Y-69166666D01*
X46692914Y-69166666D02*
X46740533Y-69261904D01*
X46454819Y-67833333D02*
X46454819Y-68023809D01*
X46454819Y-68023809D02*
X46502438Y-68119047D01*
X46502438Y-68119047D02*
X46550057Y-68166666D01*
X46550057Y-68166666D02*
X46692914Y-68261904D01*
X46692914Y-68261904D02*
X46883390Y-68309523D01*
X46883390Y-68309523D02*
X47264342Y-68309523D01*
X47264342Y-68309523D02*
X47359580Y-68261904D01*
X47359580Y-68261904D02*
X47407200Y-68214285D01*
X47407200Y-68214285D02*
X47454819Y-68119047D01*
X47454819Y-68119047D02*
X47454819Y-67928571D01*
X47454819Y-67928571D02*
X47407200Y-67833333D01*
X47407200Y-67833333D02*
X47359580Y-67785714D01*
X47359580Y-67785714D02*
X47264342Y-67738095D01*
X47264342Y-67738095D02*
X47026247Y-67738095D01*
X47026247Y-67738095D02*
X46931009Y-67785714D01*
X46931009Y-67785714D02*
X46883390Y-67833333D01*
X46883390Y-67833333D02*
X46835771Y-67928571D01*
X46835771Y-67928571D02*
X46835771Y-68119047D01*
X46835771Y-68119047D02*
X46883390Y-68214285D01*
X46883390Y-68214285D02*
X46931009Y-68261904D01*
X46931009Y-68261904D02*
X47026247Y-68309523D01*
X40333333Y-80204819D02*
X40000000Y-79728628D01*
X39761905Y-80204819D02*
X39761905Y-79204819D01*
X39761905Y-79204819D02*
X40142857Y-79204819D01*
X40142857Y-79204819D02*
X40238095Y-79252438D01*
X40238095Y-79252438D02*
X40285714Y-79300057D01*
X40285714Y-79300057D02*
X40333333Y-79395295D01*
X40333333Y-79395295D02*
X40333333Y-79538152D01*
X40333333Y-79538152D02*
X40285714Y-79633390D01*
X40285714Y-79633390D02*
X40238095Y-79681009D01*
X40238095Y-79681009D02*
X40142857Y-79728628D01*
X40142857Y-79728628D02*
X39761905Y-79728628D01*
X40666667Y-79204819D02*
X41285714Y-79204819D01*
X41285714Y-79204819D02*
X40952381Y-79585771D01*
X40952381Y-79585771D02*
X41095238Y-79585771D01*
X41095238Y-79585771D02*
X41190476Y-79633390D01*
X41190476Y-79633390D02*
X41238095Y-79681009D01*
X41238095Y-79681009D02*
X41285714Y-79776247D01*
X41285714Y-79776247D02*
X41285714Y-80014342D01*
X41285714Y-80014342D02*
X41238095Y-80109580D01*
X41238095Y-80109580D02*
X41190476Y-80157200D01*
X41190476Y-80157200D02*
X41095238Y-80204819D01*
X41095238Y-80204819D02*
X40809524Y-80204819D01*
X40809524Y-80204819D02*
X40714286Y-80157200D01*
X40714286Y-80157200D02*
X40666667Y-80109580D01*
X51583333Y-93204819D02*
X51250000Y-92728628D01*
X51011905Y-93204819D02*
X51011905Y-92204819D01*
X51011905Y-92204819D02*
X51392857Y-92204819D01*
X51392857Y-92204819D02*
X51488095Y-92252438D01*
X51488095Y-92252438D02*
X51535714Y-92300057D01*
X51535714Y-92300057D02*
X51583333Y-92395295D01*
X51583333Y-92395295D02*
X51583333Y-92538152D01*
X51583333Y-92538152D02*
X51535714Y-92633390D01*
X51535714Y-92633390D02*
X51488095Y-92681009D01*
X51488095Y-92681009D02*
X51392857Y-92728628D01*
X51392857Y-92728628D02*
X51011905Y-92728628D01*
X51916667Y-92204819D02*
X52583333Y-92204819D01*
X52583333Y-92204819D02*
X52154762Y-93204819D01*
X70304819Y-69879166D02*
X69828628Y-70212499D01*
X70304819Y-70450594D02*
X69304819Y-70450594D01*
X69304819Y-70450594D02*
X69304819Y-70069642D01*
X69304819Y-70069642D02*
X69352438Y-69974404D01*
X69352438Y-69974404D02*
X69400057Y-69926785D01*
X69400057Y-69926785D02*
X69495295Y-69879166D01*
X69495295Y-69879166D02*
X69638152Y-69879166D01*
X69638152Y-69879166D02*
X69733390Y-69926785D01*
X69733390Y-69926785D02*
X69781009Y-69974404D01*
X69781009Y-69974404D02*
X69828628Y-70069642D01*
X69828628Y-70069642D02*
X69828628Y-70450594D01*
X70304819Y-68926785D02*
X70304819Y-69498213D01*
X70304819Y-69212499D02*
X69304819Y-69212499D01*
X69304819Y-69212499D02*
X69447676Y-69307737D01*
X69447676Y-69307737D02*
X69542914Y-69402975D01*
X69542914Y-69402975D02*
X69590533Y-69498213D01*
X32738095Y-98504819D02*
X32738095Y-97504819D01*
X32738095Y-97981009D02*
X33309523Y-97981009D01*
X33309523Y-98504819D02*
X33309523Y-97504819D01*
X33690476Y-97504819D02*
X34309523Y-97504819D01*
X34309523Y-97504819D02*
X33976190Y-97885771D01*
X33976190Y-97885771D02*
X34119047Y-97885771D01*
X34119047Y-97885771D02*
X34214285Y-97933390D01*
X34214285Y-97933390D02*
X34261904Y-97981009D01*
X34261904Y-97981009D02*
X34309523Y-98076247D01*
X34309523Y-98076247D02*
X34309523Y-98314342D01*
X34309523Y-98314342D02*
X34261904Y-98409580D01*
X34261904Y-98409580D02*
X34214285Y-98457200D01*
X34214285Y-98457200D02*
X34119047Y-98504819D01*
X34119047Y-98504819D02*
X33833333Y-98504819D01*
X33833333Y-98504819D02*
X33738095Y-98457200D01*
X33738095Y-98457200D02*
X33690476Y-98409580D01*
X41859580Y-83416666D02*
X41907200Y-83464285D01*
X41907200Y-83464285D02*
X41954819Y-83607142D01*
X41954819Y-83607142D02*
X41954819Y-83702380D01*
X41954819Y-83702380D02*
X41907200Y-83845237D01*
X41907200Y-83845237D02*
X41811961Y-83940475D01*
X41811961Y-83940475D02*
X41716723Y-83988094D01*
X41716723Y-83988094D02*
X41526247Y-84035713D01*
X41526247Y-84035713D02*
X41383390Y-84035713D01*
X41383390Y-84035713D02*
X41192914Y-83988094D01*
X41192914Y-83988094D02*
X41097676Y-83940475D01*
X41097676Y-83940475D02*
X41002438Y-83845237D01*
X41002438Y-83845237D02*
X40954819Y-83702380D01*
X40954819Y-83702380D02*
X40954819Y-83607142D01*
X40954819Y-83607142D02*
X41002438Y-83464285D01*
X41002438Y-83464285D02*
X41050057Y-83416666D01*
X40954819Y-82511904D02*
X40954819Y-82988094D01*
X40954819Y-82988094D02*
X41431009Y-83035713D01*
X41431009Y-83035713D02*
X41383390Y-82988094D01*
X41383390Y-82988094D02*
X41335771Y-82892856D01*
X41335771Y-82892856D02*
X41335771Y-82654761D01*
X41335771Y-82654761D02*
X41383390Y-82559523D01*
X41383390Y-82559523D02*
X41431009Y-82511904D01*
X41431009Y-82511904D02*
X41526247Y-82464285D01*
X41526247Y-82464285D02*
X41764342Y-82464285D01*
X41764342Y-82464285D02*
X41859580Y-82511904D01*
X41859580Y-82511904D02*
X41907200Y-82559523D01*
X41907200Y-82559523D02*
X41954819Y-82654761D01*
X41954819Y-82654761D02*
X41954819Y-82892856D01*
X41954819Y-82892856D02*
X41907200Y-82988094D01*
X41907200Y-82988094D02*
X41859580Y-83035713D01*
X67404819Y-90929166D02*
X66928628Y-91262499D01*
X67404819Y-91500594D02*
X66404819Y-91500594D01*
X66404819Y-91500594D02*
X66404819Y-91119642D01*
X66404819Y-91119642D02*
X66452438Y-91024404D01*
X66452438Y-91024404D02*
X66500057Y-90976785D01*
X66500057Y-90976785D02*
X66595295Y-90929166D01*
X66595295Y-90929166D02*
X66738152Y-90929166D01*
X66738152Y-90929166D02*
X66833390Y-90976785D01*
X66833390Y-90976785D02*
X66881009Y-91024404D01*
X66881009Y-91024404D02*
X66928628Y-91119642D01*
X66928628Y-91119642D02*
X66928628Y-91500594D01*
X66738152Y-90072023D02*
X67404819Y-90072023D01*
X66357200Y-90310118D02*
X67071485Y-90548213D01*
X67071485Y-90548213D02*
X67071485Y-89929166D01*
X38854819Y-75561904D02*
X39664342Y-75561904D01*
X39664342Y-75561904D02*
X39759580Y-75514285D01*
X39759580Y-75514285D02*
X39807200Y-75466666D01*
X39807200Y-75466666D02*
X39854819Y-75371428D01*
X39854819Y-75371428D02*
X39854819Y-75180952D01*
X39854819Y-75180952D02*
X39807200Y-75085714D01*
X39807200Y-75085714D02*
X39759580Y-75038095D01*
X39759580Y-75038095D02*
X39664342Y-74990476D01*
X39664342Y-74990476D02*
X38854819Y-74990476D01*
X39188152Y-74085714D02*
X39854819Y-74085714D01*
X38807200Y-74323809D02*
X39521485Y-74561904D01*
X39521485Y-74561904D02*
X39521485Y-73942857D01*
X46916666Y-58954819D02*
X46916666Y-59669104D01*
X46916666Y-59669104D02*
X46869047Y-59811961D01*
X46869047Y-59811961D02*
X46773809Y-59907200D01*
X46773809Y-59907200D02*
X46630952Y-59954819D01*
X46630952Y-59954819D02*
X46535714Y-59954819D01*
X47297619Y-58954819D02*
X47916666Y-58954819D01*
X47916666Y-58954819D02*
X47583333Y-59335771D01*
X47583333Y-59335771D02*
X47726190Y-59335771D01*
X47726190Y-59335771D02*
X47821428Y-59383390D01*
X47821428Y-59383390D02*
X47869047Y-59431009D01*
X47869047Y-59431009D02*
X47916666Y-59526247D01*
X47916666Y-59526247D02*
X47916666Y-59764342D01*
X47916666Y-59764342D02*
X47869047Y-59859580D01*
X47869047Y-59859580D02*
X47821428Y-59907200D01*
X47821428Y-59907200D02*
X47726190Y-59954819D01*
X47726190Y-59954819D02*
X47440476Y-59954819D01*
X47440476Y-59954819D02*
X47345238Y-59907200D01*
X47345238Y-59907200D02*
X47297619Y-59859580D01*
X68033333Y-63954819D02*
X67700000Y-63478628D01*
X67461905Y-63954819D02*
X67461905Y-62954819D01*
X67461905Y-62954819D02*
X67842857Y-62954819D01*
X67842857Y-62954819D02*
X67938095Y-63002438D01*
X67938095Y-63002438D02*
X67985714Y-63050057D01*
X67985714Y-63050057D02*
X68033333Y-63145295D01*
X68033333Y-63145295D02*
X68033333Y-63288152D01*
X68033333Y-63288152D02*
X67985714Y-63383390D01*
X67985714Y-63383390D02*
X67938095Y-63431009D01*
X67938095Y-63431009D02*
X67842857Y-63478628D01*
X67842857Y-63478628D02*
X67461905Y-63478628D01*
X68890476Y-62954819D02*
X68700000Y-62954819D01*
X68700000Y-62954819D02*
X68604762Y-63002438D01*
X68604762Y-63002438D02*
X68557143Y-63050057D01*
X68557143Y-63050057D02*
X68461905Y-63192914D01*
X68461905Y-63192914D02*
X68414286Y-63383390D01*
X68414286Y-63383390D02*
X68414286Y-63764342D01*
X68414286Y-63764342D02*
X68461905Y-63859580D01*
X68461905Y-63859580D02*
X68509524Y-63907200D01*
X68509524Y-63907200D02*
X68604762Y-63954819D01*
X68604762Y-63954819D02*
X68795238Y-63954819D01*
X68795238Y-63954819D02*
X68890476Y-63907200D01*
X68890476Y-63907200D02*
X68938095Y-63859580D01*
X68938095Y-63859580D02*
X68985714Y-63764342D01*
X68985714Y-63764342D02*
X68985714Y-63526247D01*
X68985714Y-63526247D02*
X68938095Y-63431009D01*
X68938095Y-63431009D02*
X68890476Y-63383390D01*
X68890476Y-63383390D02*
X68795238Y-63335771D01*
X68795238Y-63335771D02*
X68604762Y-63335771D01*
X68604762Y-63335771D02*
X68509524Y-63383390D01*
X68509524Y-63383390D02*
X68461905Y-63431009D01*
X68461905Y-63431009D02*
X68414286Y-63526247D01*
X45916667Y-106657200D02*
X46059524Y-106704819D01*
X46059524Y-106704819D02*
X46297619Y-106704819D01*
X46297619Y-106704819D02*
X46392857Y-106657200D01*
X46392857Y-106657200D02*
X46440476Y-106609580D01*
X46440476Y-106609580D02*
X46488095Y-106514342D01*
X46488095Y-106514342D02*
X46488095Y-106419104D01*
X46488095Y-106419104D02*
X46440476Y-106323866D01*
X46440476Y-106323866D02*
X46392857Y-106276247D01*
X46392857Y-106276247D02*
X46297619Y-106228628D01*
X46297619Y-106228628D02*
X46107143Y-106181009D01*
X46107143Y-106181009D02*
X46011905Y-106133390D01*
X46011905Y-106133390D02*
X45964286Y-106085771D01*
X45964286Y-106085771D02*
X45916667Y-105990533D01*
X45916667Y-105990533D02*
X45916667Y-105895295D01*
X45916667Y-105895295D02*
X45964286Y-105800057D01*
X45964286Y-105800057D02*
X46011905Y-105752438D01*
X46011905Y-105752438D02*
X46107143Y-105704819D01*
X46107143Y-105704819D02*
X46345238Y-105704819D01*
X46345238Y-105704819D02*
X46488095Y-105752438D01*
X46821429Y-105704819D02*
X47059524Y-106704819D01*
X47059524Y-106704819D02*
X47250000Y-105990533D01*
X47250000Y-105990533D02*
X47440476Y-106704819D01*
X47440476Y-106704819D02*
X47678572Y-105704819D01*
X48011905Y-105800057D02*
X48059524Y-105752438D01*
X48059524Y-105752438D02*
X48154762Y-105704819D01*
X48154762Y-105704819D02*
X48392857Y-105704819D01*
X48392857Y-105704819D02*
X48488095Y-105752438D01*
X48488095Y-105752438D02*
X48535714Y-105800057D01*
X48535714Y-105800057D02*
X48583333Y-105895295D01*
X48583333Y-105895295D02*
X48583333Y-105990533D01*
X48583333Y-105990533D02*
X48535714Y-106133390D01*
X48535714Y-106133390D02*
X47964286Y-106704819D01*
X47964286Y-106704819D02*
X48583333Y-106704819D01*
X40204819Y-69892857D02*
X39728628Y-70226190D01*
X40204819Y-70464285D02*
X39204819Y-70464285D01*
X39204819Y-70464285D02*
X39204819Y-70083333D01*
X39204819Y-70083333D02*
X39252438Y-69988095D01*
X39252438Y-69988095D02*
X39300057Y-69940476D01*
X39300057Y-69940476D02*
X39395295Y-69892857D01*
X39395295Y-69892857D02*
X39538152Y-69892857D01*
X39538152Y-69892857D02*
X39633390Y-69940476D01*
X39633390Y-69940476D02*
X39681009Y-69988095D01*
X39681009Y-69988095D02*
X39728628Y-70083333D01*
X39728628Y-70083333D02*
X39728628Y-70464285D01*
X40204819Y-68940476D02*
X40204819Y-69511904D01*
X40204819Y-69226190D02*
X39204819Y-69226190D01*
X39204819Y-69226190D02*
X39347676Y-69321428D01*
X39347676Y-69321428D02*
X39442914Y-69416666D01*
X39442914Y-69416666D02*
X39490533Y-69511904D01*
X39204819Y-68035714D02*
X39204819Y-68511904D01*
X39204819Y-68511904D02*
X39681009Y-68559523D01*
X39681009Y-68559523D02*
X39633390Y-68511904D01*
X39633390Y-68511904D02*
X39585771Y-68416666D01*
X39585771Y-68416666D02*
X39585771Y-68178571D01*
X39585771Y-68178571D02*
X39633390Y-68083333D01*
X39633390Y-68083333D02*
X39681009Y-68035714D01*
X39681009Y-68035714D02*
X39776247Y-67988095D01*
X39776247Y-67988095D02*
X40014342Y-67988095D01*
X40014342Y-67988095D02*
X40109580Y-68035714D01*
X40109580Y-68035714D02*
X40157200Y-68083333D01*
X40157200Y-68083333D02*
X40204819Y-68178571D01*
X40204819Y-68178571D02*
X40204819Y-68416666D01*
X40204819Y-68416666D02*
X40157200Y-68511904D01*
X40157200Y-68511904D02*
X40109580Y-68559523D01*
D11*
%TO.C,C12*%
X80861252Y-86615000D02*
X80338748Y-86615000D01*
X80861252Y-88085000D02*
X80338748Y-88085000D01*
%TO.C,C1*%
X53835180Y-100186252D02*
X53835180Y-99663748D01*
X55305180Y-100186252D02*
X55305180Y-99663748D01*
%TO.C,R12*%
X67872936Y-82865000D02*
X68327064Y-82865000D01*
X67872936Y-84335000D02*
X68327064Y-84335000D01*
%TO.C,POW-LED1*%
X65265000Y-71502500D02*
X65265000Y-73422500D01*
X65265000Y-73422500D02*
X67950000Y-73422500D01*
X67950000Y-71502500D02*
X65265000Y-71502500D01*
%TO.C,C4*%
X47027500Y-91211252D02*
X47027500Y-90688748D01*
X48497500Y-91211252D02*
X48497500Y-90688748D01*
%TO.C,C8*%
X47027500Y-94711252D02*
X47027500Y-94188748D01*
X48497500Y-94711252D02*
X48497500Y-94188748D01*
%TO.C,C10*%
X65465000Y-69973752D02*
X65465000Y-69451248D01*
X66935000Y-69973752D02*
X66935000Y-69451248D01*
%TO.C,R2*%
X65585180Y-90902064D02*
X65585180Y-90447936D01*
X67055180Y-90902064D02*
X67055180Y-90447936D01*
%TO.C,SW4*%
X74500000Y-60500000D02*
X74500000Y-58200000D01*
X75700000Y-60500000D02*
X74500000Y-60500000D01*
X77500000Y-60500000D02*
X78200000Y-60500000D01*
X80000000Y-60500000D02*
X80700000Y-60500000D01*
X83700000Y-58200000D02*
X83700000Y-60500000D01*
X83700000Y-60500000D02*
X82500000Y-60500000D01*
%TO.C,Red1*%
X41040000Y-64750000D02*
X41040000Y-67435000D01*
X41040000Y-67435000D02*
X42960000Y-67435000D01*
X42960000Y-67435000D02*
X42960000Y-64750000D01*
%TO.C,R10*%
X60872936Y-84615000D02*
X61327064Y-84615000D01*
X60872936Y-86085000D02*
X61327064Y-86085000D01*
%TO.C,D1*%
X41840000Y-85200000D02*
X41840000Y-88500000D01*
X41840000Y-85200000D02*
X47350000Y-85200000D01*
X41840000Y-88500000D02*
X47350000Y-88500000D01*
%TO.C,R9*%
X67872936Y-78865000D02*
X68327064Y-78865000D01*
X67872936Y-80335000D02*
X68327064Y-80335000D01*
%TO.C,R14*%
X85544564Y-79132500D02*
X85090436Y-79132500D01*
X85544564Y-80602500D02*
X85090436Y-80602500D01*
%TO.C,Q1*%
X46090000Y-81290000D02*
X47610000Y-81290000D01*
X46090000Y-82290000D02*
X46090000Y-81290000D01*
X46090000Y-84410000D02*
X46090000Y-83410000D01*
X47610000Y-81290000D02*
X47610000Y-81340000D01*
X47610000Y-82460000D02*
X47610000Y-83240000D01*
X47610000Y-84360000D02*
X47610000Y-84410000D01*
X47610000Y-84410000D02*
X46090000Y-84410000D01*
X48150000Y-83230000D02*
X47910000Y-82900000D01*
X48390000Y-82900000D01*
X48150000Y-83230000D01*
G36*
X48150000Y-83230000D02*
G01*
X47910000Y-82900000D01*
X48390000Y-82900000D01*
X48150000Y-83230000D01*
G37*
%TO.C,Green1*%
X43040000Y-64750000D02*
X43040000Y-67435000D01*
X43040000Y-67435000D02*
X44960000Y-67435000D01*
X44960000Y-67435000D02*
X44960000Y-64750000D01*
D12*
%TO.C,U6*%
X71100000Y-80600000D02*
X71100000Y-81070000D01*
X71100000Y-80600000D02*
X71570000Y-80600000D01*
X71100000Y-87600000D02*
X71100000Y-87130000D01*
X71100000Y-87600000D02*
X71570000Y-87600000D01*
X78100000Y-80600000D02*
X77630000Y-80600000D01*
X78100000Y-80600000D02*
X78100000Y-81070000D01*
X78100000Y-87600000D02*
X77630000Y-87600000D01*
X78100000Y-87600000D02*
X78100000Y-87130000D01*
D13*
X70245000Y-81500000D02*
G75*
G02*
X70045000Y-81500000I-100000J0D01*
G01*
X70045000Y-81500000D02*
G75*
G02*
X70245000Y-81500000I100000J0D01*
G01*
D11*
%TO.C,R5*%
X42615000Y-83327064D02*
X42615000Y-82872936D01*
X44085000Y-83327064D02*
X44085000Y-82872936D01*
%TO.C,C2*%
X55835180Y-100186252D02*
X55835180Y-99663748D01*
X57305180Y-100186252D02*
X57305180Y-99663748D01*
%TO.C,SW1*%
X58250000Y-60500000D02*
X58250000Y-58200000D01*
X59450000Y-60500000D02*
X58250000Y-60500000D01*
X61250000Y-60500000D02*
X61950000Y-60500000D01*
X63750000Y-60500000D02*
X64450000Y-60500000D01*
X67450000Y-58200000D02*
X67450000Y-60500000D01*
X67450000Y-60500000D02*
X66250000Y-60500000D01*
%TO.C,U7*%
X63690000Y-64940000D02*
X63740000Y-64940000D01*
X63690000Y-66760000D02*
X63690000Y-64940000D01*
X63740000Y-66760000D02*
X63690000Y-66760000D01*
X65640000Y-66760000D02*
X64860000Y-66760000D01*
X66760000Y-64940000D02*
X66810000Y-64940000D01*
X66810000Y-64940000D02*
X66810000Y-66760000D01*
X66810000Y-66760000D02*
X66760000Y-66760000D01*
X67090000Y-64640000D02*
X66760000Y-64400000D01*
X67090000Y-64160000D01*
X67090000Y-64640000D01*
G36*
X67090000Y-64640000D02*
G01*
X66760000Y-64400000D01*
X67090000Y-64160000D01*
X67090000Y-64640000D01*
G37*
%TO.C,D3*%
X94300000Y-91500000D02*
G75*
G02*
X85700000Y-91500000I-4300000J0D01*
G01*
X85700000Y-91500000D02*
G75*
G02*
X94300000Y-91500000I4300000J0D01*
G01*
X89500000Y-96500000D02*
X89030000Y-96840000D01*
X89030000Y-96160000D01*
X89500000Y-96500000D01*
G36*
X89500000Y-96500000D02*
G01*
X89030000Y-96840000D01*
X89030000Y-96160000D01*
X89500000Y-96500000D01*
G37*
%TO.C,R8*%
X51535436Y-89965000D02*
X51989564Y-89965000D01*
X51535436Y-91435000D02*
X51989564Y-91435000D01*
%TO.C,R11*%
X64372936Y-84615000D02*
X64827064Y-84615000D01*
X64372936Y-86085000D02*
X64827064Y-86085000D01*
D12*
%TO.C,Q2*%
X41350000Y-96700000D02*
X41350000Y-96600000D01*
X41450000Y-96700000D02*
X41350000Y-96700000D01*
D14*
X41591400Y-96700000D02*
G75*
G02*
X41308600Y-96700000I-141400J0D01*
G01*
X41308600Y-96700000D02*
G75*
G02*
X41591400Y-96700000I141400J0D01*
G01*
D12*
%TO.C,A1*%
X66533870Y-94696390D02*
X67223540Y-94410720D01*
X66917400Y-93671610D02*
X66227720Y-93957290D01*
X67223540Y-94410720D02*
X66917400Y-93671610D01*
X57803960Y-97879470D02*
G75*
G02*
X60320530Y-91803960I4296040J1779470D01*
G01*
X60320530Y-91803960D02*
G75*
G02*
X66227707Y-93957297I1779670J-4297040D01*
G01*
X63879470Y-100396040D02*
G75*
G02*
X57803959Y-97879470I-1779470J4296041D01*
G01*
X66533870Y-94696390D02*
G75*
G02*
X63879471Y-100396040I-4434016J-1402941D01*
G01*
D13*
X64400000Y-91300000D02*
G75*
G02*
X64200000Y-91300000I-100000J0D01*
G01*
X64200000Y-91300000D02*
G75*
G02*
X64400000Y-91300000I100000J0D01*
G01*
D11*
%TO.C,C7*%
X61538748Y-70477500D02*
X62061252Y-70477500D01*
X61538748Y-71947500D02*
X62061252Y-71947500D01*
%TO.C,C3*%
X45865000Y-72861252D02*
X45865000Y-72338748D01*
X47335000Y-72861252D02*
X47335000Y-72338748D01*
%TO.C,R13*%
X72622936Y-62865000D02*
X73077064Y-62865000D01*
X72622936Y-64335000D02*
X73077064Y-64335000D01*
%TO.C,C11*%
X80861252Y-84615000D02*
X80338748Y-84615000D01*
X80861252Y-86085000D02*
X80338748Y-86085000D01*
%TO.C,SW3*%
X43700000Y-97500000D02*
X43700000Y-98883000D01*
X43700000Y-97500000D02*
X45083000Y-97500000D01*
X43940000Y-97740000D02*
X43940000Y-99050000D01*
X43940000Y-97740000D02*
X50760000Y-97740000D01*
X43940000Y-100650000D02*
X43940000Y-101960000D01*
X43940000Y-101960000D02*
X50760000Y-101960000D01*
X46746667Y-99215000D02*
X46746667Y-100485000D01*
X50760000Y-97740000D02*
X50760000Y-99050000D01*
X50760000Y-100650000D02*
X50760000Y-101960000D01*
X45540000Y-99215000D02*
X46746667Y-99215000D01*
X46746667Y-100485000D01*
X45540000Y-100485000D01*
X45540000Y-99215000D01*
G36*
X45540000Y-99215000D02*
G01*
X46746667Y-99215000D01*
X46746667Y-100485000D01*
X45540000Y-100485000D01*
X45540000Y-99215000D01*
G37*
X45540000Y-99215000D02*
X49160000Y-99215000D01*
X49160000Y-100485000D01*
X45540000Y-100485000D01*
X45540000Y-99215000D01*
D12*
%TO.C,U2*%
X87217500Y-75455000D02*
X87217500Y-79355000D01*
X92117500Y-75455000D02*
X92117500Y-79355000D01*
D13*
X87867500Y-81305000D02*
G75*
G02*
X87667500Y-81305000I-100000J0D01*
G01*
X87667500Y-81305000D02*
G75*
G02*
X87867500Y-81305000I100000J0D01*
G01*
D11*
%TO.C,P1*%
X29640000Y-77400000D02*
X29640000Y-86800000D01*
X31540000Y-77400000D02*
X29640000Y-77400000D01*
X31540000Y-86800000D02*
X29640000Y-86800000D01*
X35440000Y-77400000D02*
X33440000Y-77400000D01*
X35440000Y-86800000D02*
X33440000Y-86800000D01*
%TO.C,U1*%
X40952500Y-89640000D02*
X45072500Y-89640000D01*
X45072500Y-94760000D02*
X40952500Y-94760000D01*
X39272500Y-90200000D02*
X38942500Y-90440000D01*
X38942500Y-89960000D01*
X39272500Y-90200000D01*
G36*
X39272500Y-90200000D02*
G01*
X38942500Y-90440000D01*
X38942500Y-89960000D01*
X39272500Y-90200000D01*
G37*
%TO.C,C9*%
X67788748Y-80865000D02*
X68311252Y-80865000D01*
X67788748Y-82335000D02*
X68311252Y-82335000D01*
%TO.C,R16*%
X43015000Y-69477064D02*
X43015000Y-69022936D01*
X44485000Y-69477064D02*
X44485000Y-69022936D01*
%TO.C,R3*%
X42710436Y-79115000D02*
X43164564Y-79115000D01*
X42710436Y-80585000D02*
X43164564Y-80585000D01*
%TO.C,R7*%
X51285436Y-91965000D02*
X51739564Y-91965000D01*
X51285436Y-93435000D02*
X51739564Y-93435000D01*
%TO.C,R1*%
X67465000Y-69485436D02*
X67465000Y-69939564D01*
X68935000Y-69485436D02*
X68935000Y-69939564D01*
%TO.C,C5*%
X40615000Y-82838748D02*
X40615000Y-83361252D01*
X42085000Y-82838748D02*
X42085000Y-83361252D01*
%TO.C,R4*%
X67865000Y-90989564D02*
X67865000Y-90535436D01*
X69335000Y-90989564D02*
X69335000Y-90535436D01*
%TO.C,U4*%
X40240000Y-72740000D02*
X40335000Y-72740000D01*
X40240000Y-76860000D02*
X40240000Y-72740000D01*
X40335000Y-76860000D02*
X40240000Y-76860000D01*
X45265000Y-72740000D02*
X45360000Y-72740000D01*
X45360000Y-72740000D02*
X45360000Y-76860000D01*
X45360000Y-76860000D02*
X45265000Y-76860000D01*
X40330000Y-77400000D02*
X40000000Y-77640000D01*
X40000000Y-77160000D01*
X40330000Y-77400000D01*
G36*
X40330000Y-77400000D02*
G01*
X40000000Y-77640000D01*
X40000000Y-77160000D01*
X40330000Y-77400000D01*
G37*
%TO.C,J3*%
X40920000Y-59670000D02*
X40920000Y-60240000D01*
X40920000Y-59670000D02*
X46120000Y-59670000D01*
X40920000Y-61760000D02*
X40920000Y-62330000D01*
X40920000Y-62330000D02*
X46120000Y-62330000D01*
X46120000Y-59670000D02*
X46120000Y-60240000D01*
X46120000Y-60240000D02*
X47480000Y-60240000D01*
X46120000Y-61760000D02*
X46120000Y-62330000D01*
%TO.C,R6*%
X68427064Y-61115000D02*
X67972936Y-61115000D01*
X68427064Y-62585000D02*
X67972936Y-62585000D01*
%TO.C,SW2*%
X43600000Y-102400000D02*
X43600000Y-103783000D01*
X43600000Y-102400000D02*
X44983000Y-102400000D01*
X43840000Y-102640000D02*
X43840000Y-103950000D01*
X43840000Y-102640000D02*
X50660000Y-102640000D01*
X43840000Y-105550000D02*
X43840000Y-106860000D01*
X43840000Y-106860000D02*
X50660000Y-106860000D01*
X46646667Y-104115000D02*
X46646667Y-105385000D01*
X50660000Y-102640000D02*
X50660000Y-103950000D01*
X50660000Y-105550000D02*
X50660000Y-106860000D01*
X45440000Y-104115000D02*
X46646667Y-104115000D01*
X46646667Y-105385000D01*
X45440000Y-105385000D01*
X45440000Y-104115000D01*
G36*
X45440000Y-104115000D02*
G01*
X46646667Y-104115000D01*
X46646667Y-105385000D01*
X45440000Y-105385000D01*
X45440000Y-104115000D01*
G37*
X45440000Y-104115000D02*
X49060000Y-104115000D01*
X49060000Y-105385000D01*
X45440000Y-105385000D01*
X45440000Y-104115000D01*
%TO.C,R15*%
X41015000Y-69564564D02*
X41015000Y-69110436D01*
X42485000Y-69564564D02*
X42485000Y-69110436D01*
%TD*%
M02*
