%TF.GenerationSoftware,KiCad,Pcbnew,9.0.7*%
%TF.CreationDate,2026-05-12T18:13:30-04:00*%
%TF.ProjectId,FriendlyHeadlamp,46726965-6e64-46c7-9948-6561646c616d,rev?*%
%TF.SameCoordinates,Original*%
%TF.FileFunction,Soldermask,Top*%
%TF.FilePolarity,Negative*%
%FSLAX46Y46*%
G04 Gerber Fmt 4.6, Leading zero omitted, Abs format (unit mm)*
G04 Created by KiCad (PCBNEW 9.0.7) date 2026-05-12 18:13:30*
%MOMM*%
%LPD*%
G01*
G04 APERTURE LIST*
G04 Aperture macros list*
%AMRoundRect*
0 Rectangle with rounded corners*
0 $1 Rounding radius*
0 $2 $3 $4 $5 $6 $7 $8 $9 X,Y pos of 4 corners*
0 Add a 4 corners polygon primitive as box body*
4,1,4,$2,$3,$4,$5,$6,$7,$8,$9,$2,$3,0*
0 Add four circle primitives for the rounded corners*
1,1,$1+$1,$2,$3*
1,1,$1+$1,$4,$5*
1,1,$1+$1,$6,$7*
1,1,$1+$1,$8,$9*
0 Add four rect primitives between the rounded corners*
20,1,$1+$1,$2,$3,$4,$5,0*
20,1,$1+$1,$4,$5,$6,$7,0*
20,1,$1+$1,$6,$7,$8,$9,0*
20,1,$1+$1,$8,$9,$2,$3,0*%
G04 Aperture macros list end*
%ADD10C,0.010000*%
%ADD11RoundRect,0.250000X0.250000X0.475000X-0.250000X0.475000X-0.250000X-0.475000X0.250000X-0.475000X0*%
%ADD12RoundRect,0.250000X0.475000X-0.250000X0.475000X0.250000X-0.475000X0.250000X-0.475000X-0.250000X0*%
%ADD13RoundRect,0.250000X-0.262500X-0.450000X0.262500X-0.450000X0.262500X0.450000X-0.262500X0.450000X0*%
%ADD14RoundRect,0.243750X-0.243750X-0.456250X0.243750X-0.456250X0.243750X0.456250X-0.243750X0.456250X0*%
%ADD15C,2.500000*%
%ADD16RoundRect,0.250000X0.450000X-0.262500X0.450000X0.262500X-0.450000X0.262500X-0.450000X-0.262500X0*%
%ADD17C,0.900000*%
%ADD18RoundRect,0.250000X0.375000X1.000000X-0.375000X1.000000X-0.375000X-1.000000X0.375000X-1.000000X0*%
%ADD19RoundRect,0.243750X0.456250X-0.243750X0.456250X0.243750X-0.456250X0.243750X-0.456250X-0.243750X0*%
%ADD20RoundRect,0.250000X-1.000000X-0.650000X1.000000X-0.650000X1.000000X0.650000X-1.000000X0.650000X0*%
%ADD21RoundRect,0.250000X0.262500X0.450000X-0.262500X0.450000X-0.262500X-0.450000X0.262500X-0.450000X0*%
%ADD22RoundRect,0.150000X0.587500X0.150000X-0.587500X0.150000X-0.587500X-0.150000X0.587500X-0.150000X0*%
%ADD23RoundRect,0.102000X-2.050000X-2.050000X2.050000X-2.050000X2.050000X2.050000X-2.050000X2.050000X0*%
%ADD24RoundRect,0.150000X-0.150000X0.512500X-0.150000X-0.512500X0.150000X-0.512500X0.150000X0.512500X0*%
%ADD25R,2.700000X3.500000*%
%ADD26C,5.700000*%
%ADD27RoundRect,0.102000X0.150000X0.495000X-0.150000X0.495000X-0.150000X-0.495000X0.150000X-0.495000X0*%
%ADD28RoundRect,0.102000X-0.550000X0.550000X-0.550000X-0.550000X0.550000X-0.550000X0.550000X0.550000X0*%
%ADD29C,1.304000*%
%ADD30RoundRect,0.250000X-0.250000X-0.475000X0.250000X-0.475000X0.250000X0.475000X-0.250000X0.475000X0*%
%ADD31RoundRect,0.250000X-0.830000X-0.310000X0.830000X-0.310000X0.830000X0.310000X-0.830000X0.310000X0*%
%ADD32RoundRect,0.102000X0.330000X-1.000000X0.330000X1.000000X-0.330000X1.000000X-0.330000X-1.000000X0*%
%ADD33RoundRect,0.102000X1.500000X-1.000000X1.500000X1.000000X-1.500000X1.000000X-1.500000X-1.000000X0*%
%ADD34C,0.650000*%
%ADD35R,1.450000X0.600000*%
%ADD36R,1.450000X0.300000*%
%ADD37O,2.100000X1.000000*%
%ADD38O,1.600000X1.000000*%
%ADD39RoundRect,0.150000X-0.687500X-0.150000X0.687500X-0.150000X0.687500X0.150000X-0.687500X0.150000X0*%
%ADD40R,2.100000X3.300000*%
%ADD41RoundRect,0.250000X-0.450000X0.262500X-0.450000X-0.262500X0.450000X-0.262500X0.450000X0.262500X0*%
%ADD42RoundRect,0.250000X-0.475000X0.250000X-0.475000X-0.250000X0.475000X-0.250000X0.475000X0.250000X0*%
%ADD43RoundRect,0.150000X0.150000X-0.825000X0.150000X0.825000X-0.150000X0.825000X-0.150000X-0.825000X0*%
%ADD44R,3.300000X2.410000*%
%ADD45R,3.000000X1.000000*%
G04 APERTURE END LIST*
D10*
%TO.C,U6*%
X71550000Y-81660000D02*
X70800000Y-81660000D01*
X70800000Y-81340000D01*
X71550000Y-81340000D01*
X71550000Y-81660000D01*
G36*
X71550000Y-81660000D02*
G01*
X70800000Y-81660000D01*
X70800000Y-81340000D01*
X71550000Y-81340000D01*
X71550000Y-81660000D01*
G37*
X71550000Y-82060000D02*
X70800000Y-82060000D01*
X70800000Y-81740000D01*
X71550000Y-81740000D01*
X71550000Y-82060000D01*
G36*
X71550000Y-82060000D02*
G01*
X70800000Y-82060000D01*
X70800000Y-81740000D01*
X71550000Y-81740000D01*
X71550000Y-82060000D01*
G37*
X71550000Y-82460000D02*
X70800000Y-82460000D01*
X70800000Y-82140000D01*
X71550000Y-82140000D01*
X71550000Y-82460000D01*
G36*
X71550000Y-82460000D02*
G01*
X70800000Y-82460000D01*
X70800000Y-82140000D01*
X71550000Y-82140000D01*
X71550000Y-82460000D01*
G37*
X71550000Y-82860000D02*
X70800000Y-82860000D01*
X70800000Y-82540000D01*
X71550000Y-82540000D01*
X71550000Y-82860000D01*
G36*
X71550000Y-82860000D02*
G01*
X70800000Y-82860000D01*
X70800000Y-82540000D01*
X71550000Y-82540000D01*
X71550000Y-82860000D01*
G37*
X71550000Y-83260000D02*
X70800000Y-83260000D01*
X70800000Y-82940000D01*
X71550000Y-82940000D01*
X71550000Y-83260000D01*
G36*
X71550000Y-83260000D02*
G01*
X70800000Y-83260000D01*
X70800000Y-82940000D01*
X71550000Y-82940000D01*
X71550000Y-83260000D01*
G37*
X71550000Y-83660000D02*
X70800000Y-83660000D01*
X70800000Y-83340000D01*
X71550000Y-83340000D01*
X71550000Y-83660000D01*
G36*
X71550000Y-83660000D02*
G01*
X70800000Y-83660000D01*
X70800000Y-83340000D01*
X71550000Y-83340000D01*
X71550000Y-83660000D01*
G37*
X71550000Y-84060000D02*
X70800000Y-84060000D01*
X70800000Y-83740000D01*
X71550000Y-83740000D01*
X71550000Y-84060000D01*
G36*
X71550000Y-84060000D02*
G01*
X70800000Y-84060000D01*
X70800000Y-83740000D01*
X71550000Y-83740000D01*
X71550000Y-84060000D01*
G37*
X71550000Y-84460000D02*
X70800000Y-84460000D01*
X70800000Y-84140000D01*
X71550000Y-84140000D01*
X71550000Y-84460000D01*
G36*
X71550000Y-84460000D02*
G01*
X70800000Y-84460000D01*
X70800000Y-84140000D01*
X71550000Y-84140000D01*
X71550000Y-84460000D01*
G37*
X71550000Y-84860000D02*
X70800000Y-84860000D01*
X70800000Y-84540000D01*
X71550000Y-84540000D01*
X71550000Y-84860000D01*
G36*
X71550000Y-84860000D02*
G01*
X70800000Y-84860000D01*
X70800000Y-84540000D01*
X71550000Y-84540000D01*
X71550000Y-84860000D01*
G37*
X71550000Y-85260000D02*
X70800000Y-85260000D01*
X70800000Y-84940000D01*
X71550000Y-84940000D01*
X71550000Y-85260000D01*
G36*
X71550000Y-85260000D02*
G01*
X70800000Y-85260000D01*
X70800000Y-84940000D01*
X71550000Y-84940000D01*
X71550000Y-85260000D01*
G37*
X71550000Y-85660000D02*
X70800000Y-85660000D01*
X70800000Y-85340000D01*
X71550000Y-85340000D01*
X71550000Y-85660000D01*
G36*
X71550000Y-85660000D02*
G01*
X70800000Y-85660000D01*
X70800000Y-85340000D01*
X71550000Y-85340000D01*
X71550000Y-85660000D01*
G37*
X71550000Y-86060000D02*
X70800000Y-86060000D01*
X70800000Y-85740000D01*
X71550000Y-85740000D01*
X71550000Y-86060000D01*
G36*
X71550000Y-86060000D02*
G01*
X70800000Y-86060000D01*
X70800000Y-85740000D01*
X71550000Y-85740000D01*
X71550000Y-86060000D01*
G37*
X71550000Y-86460000D02*
X70800000Y-86460000D01*
X70800000Y-86140000D01*
X71550000Y-86140000D01*
X71550000Y-86460000D01*
G36*
X71550000Y-86460000D02*
G01*
X70800000Y-86460000D01*
X70800000Y-86140000D01*
X71550000Y-86140000D01*
X71550000Y-86460000D01*
G37*
X71550000Y-86860000D02*
X70800000Y-86860000D01*
X70800000Y-86540000D01*
X71550000Y-86540000D01*
X71550000Y-86860000D01*
G36*
X71550000Y-86860000D02*
G01*
X70800000Y-86860000D01*
X70800000Y-86540000D01*
X71550000Y-86540000D01*
X71550000Y-86860000D01*
G37*
X72160000Y-81050000D02*
X71840000Y-81050000D01*
X71840000Y-80300000D01*
X72160000Y-80300000D01*
X72160000Y-81050000D01*
G36*
X72160000Y-81050000D02*
G01*
X71840000Y-81050000D01*
X71840000Y-80300000D01*
X72160000Y-80300000D01*
X72160000Y-81050000D01*
G37*
X72160000Y-87900000D02*
X71840000Y-87900000D01*
X71840000Y-87150000D01*
X72160000Y-87150000D01*
X72160000Y-87900000D01*
G36*
X72160000Y-87900000D02*
G01*
X71840000Y-87900000D01*
X71840000Y-87150000D01*
X72160000Y-87150000D01*
X72160000Y-87900000D01*
G37*
X72560000Y-81050000D02*
X72240000Y-81050000D01*
X72240000Y-80300000D01*
X72560000Y-80300000D01*
X72560000Y-81050000D01*
G36*
X72560000Y-81050000D02*
G01*
X72240000Y-81050000D01*
X72240000Y-80300000D01*
X72560000Y-80300000D01*
X72560000Y-81050000D01*
G37*
X72560000Y-87900000D02*
X72240000Y-87900000D01*
X72240000Y-87150000D01*
X72560000Y-87150000D01*
X72560000Y-87900000D01*
G36*
X72560000Y-87900000D02*
G01*
X72240000Y-87900000D01*
X72240000Y-87150000D01*
X72560000Y-87150000D01*
X72560000Y-87900000D01*
G37*
X72960000Y-81050000D02*
X72640000Y-81050000D01*
X72640000Y-80300000D01*
X72960000Y-80300000D01*
X72960000Y-81050000D01*
G36*
X72960000Y-81050000D02*
G01*
X72640000Y-81050000D01*
X72640000Y-80300000D01*
X72960000Y-80300000D01*
X72960000Y-81050000D01*
G37*
X72960000Y-87900000D02*
X72640000Y-87900000D01*
X72640000Y-87150000D01*
X72960000Y-87150000D01*
X72960000Y-87900000D01*
G36*
X72960000Y-87900000D02*
G01*
X72640000Y-87900000D01*
X72640000Y-87150000D01*
X72960000Y-87150000D01*
X72960000Y-87900000D01*
G37*
X73360000Y-81050000D02*
X73040000Y-81050000D01*
X73040000Y-80300000D01*
X73360000Y-80300000D01*
X73360000Y-81050000D01*
G36*
X73360000Y-81050000D02*
G01*
X73040000Y-81050000D01*
X73040000Y-80300000D01*
X73360000Y-80300000D01*
X73360000Y-81050000D01*
G37*
X73360000Y-87900000D02*
X73040000Y-87900000D01*
X73040000Y-87150000D01*
X73360000Y-87150000D01*
X73360000Y-87900000D01*
G36*
X73360000Y-87900000D02*
G01*
X73040000Y-87900000D01*
X73040000Y-87150000D01*
X73360000Y-87150000D01*
X73360000Y-87900000D01*
G37*
X73760000Y-81050000D02*
X73440000Y-81050000D01*
X73440000Y-80300000D01*
X73760000Y-80300000D01*
X73760000Y-81050000D01*
G36*
X73760000Y-81050000D02*
G01*
X73440000Y-81050000D01*
X73440000Y-80300000D01*
X73760000Y-80300000D01*
X73760000Y-81050000D01*
G37*
X73760000Y-87900000D02*
X73440000Y-87900000D01*
X73440000Y-87150000D01*
X73760000Y-87150000D01*
X73760000Y-87900000D01*
G36*
X73760000Y-87900000D02*
G01*
X73440000Y-87900000D01*
X73440000Y-87150000D01*
X73760000Y-87150000D01*
X73760000Y-87900000D01*
G37*
X74160000Y-81050000D02*
X73840000Y-81050000D01*
X73840000Y-80300000D01*
X74160000Y-80300000D01*
X74160000Y-81050000D01*
G36*
X74160000Y-81050000D02*
G01*
X73840000Y-81050000D01*
X73840000Y-80300000D01*
X74160000Y-80300000D01*
X74160000Y-81050000D01*
G37*
X74160000Y-87900000D02*
X73840000Y-87900000D01*
X73840000Y-87150000D01*
X74160000Y-87150000D01*
X74160000Y-87900000D01*
G36*
X74160000Y-87900000D02*
G01*
X73840000Y-87900000D01*
X73840000Y-87150000D01*
X74160000Y-87150000D01*
X74160000Y-87900000D01*
G37*
X74560000Y-81050000D02*
X74240000Y-81050000D01*
X74240000Y-80300000D01*
X74560000Y-80300000D01*
X74560000Y-81050000D01*
G36*
X74560000Y-81050000D02*
G01*
X74240000Y-81050000D01*
X74240000Y-80300000D01*
X74560000Y-80300000D01*
X74560000Y-81050000D01*
G37*
X74560000Y-87900000D02*
X74240000Y-87900000D01*
X74240000Y-87150000D01*
X74560000Y-87150000D01*
X74560000Y-87900000D01*
G36*
X74560000Y-87900000D02*
G01*
X74240000Y-87900000D01*
X74240000Y-87150000D01*
X74560000Y-87150000D01*
X74560000Y-87900000D01*
G37*
X74960000Y-81050000D02*
X74640000Y-81050000D01*
X74640000Y-80300000D01*
X74960000Y-80300000D01*
X74960000Y-81050000D01*
G36*
X74960000Y-81050000D02*
G01*
X74640000Y-81050000D01*
X74640000Y-80300000D01*
X74960000Y-80300000D01*
X74960000Y-81050000D01*
G37*
X74960000Y-87900000D02*
X74640000Y-87900000D01*
X74640000Y-87150000D01*
X74960000Y-87150000D01*
X74960000Y-87900000D01*
G36*
X74960000Y-87900000D02*
G01*
X74640000Y-87900000D01*
X74640000Y-87150000D01*
X74960000Y-87150000D01*
X74960000Y-87900000D01*
G37*
X75360000Y-81050000D02*
X75040000Y-81050000D01*
X75040000Y-80300000D01*
X75360000Y-80300000D01*
X75360000Y-81050000D01*
G36*
X75360000Y-81050000D02*
G01*
X75040000Y-81050000D01*
X75040000Y-80300000D01*
X75360000Y-80300000D01*
X75360000Y-81050000D01*
G37*
X75360000Y-87900000D02*
X75040000Y-87900000D01*
X75040000Y-87150000D01*
X75360000Y-87150000D01*
X75360000Y-87900000D01*
G36*
X75360000Y-87900000D02*
G01*
X75040000Y-87900000D01*
X75040000Y-87150000D01*
X75360000Y-87150000D01*
X75360000Y-87900000D01*
G37*
X75760000Y-81050000D02*
X75440000Y-81050000D01*
X75440000Y-80300000D01*
X75760000Y-80300000D01*
X75760000Y-81050000D01*
G36*
X75760000Y-81050000D02*
G01*
X75440000Y-81050000D01*
X75440000Y-80300000D01*
X75760000Y-80300000D01*
X75760000Y-81050000D01*
G37*
X75760000Y-87900000D02*
X75440000Y-87900000D01*
X75440000Y-87150000D01*
X75760000Y-87150000D01*
X75760000Y-87900000D01*
G36*
X75760000Y-87900000D02*
G01*
X75440000Y-87900000D01*
X75440000Y-87150000D01*
X75760000Y-87150000D01*
X75760000Y-87900000D01*
G37*
X76160000Y-81050000D02*
X75840000Y-81050000D01*
X75840000Y-80300000D01*
X76160000Y-80300000D01*
X76160000Y-81050000D01*
G36*
X76160000Y-81050000D02*
G01*
X75840000Y-81050000D01*
X75840000Y-80300000D01*
X76160000Y-80300000D01*
X76160000Y-81050000D01*
G37*
X76160000Y-87900000D02*
X75840000Y-87900000D01*
X75840000Y-87150000D01*
X76160000Y-87150000D01*
X76160000Y-87900000D01*
G36*
X76160000Y-87900000D02*
G01*
X75840000Y-87900000D01*
X75840000Y-87150000D01*
X76160000Y-87150000D01*
X76160000Y-87900000D01*
G37*
X76560000Y-81050000D02*
X76240000Y-81050000D01*
X76240000Y-80300000D01*
X76560000Y-80300000D01*
X76560000Y-81050000D01*
G36*
X76560000Y-81050000D02*
G01*
X76240000Y-81050000D01*
X76240000Y-80300000D01*
X76560000Y-80300000D01*
X76560000Y-81050000D01*
G37*
X76560000Y-87900000D02*
X76240000Y-87900000D01*
X76240000Y-87150000D01*
X76560000Y-87150000D01*
X76560000Y-87900000D01*
G36*
X76560000Y-87900000D02*
G01*
X76240000Y-87900000D01*
X76240000Y-87150000D01*
X76560000Y-87150000D01*
X76560000Y-87900000D01*
G37*
X76960000Y-81050000D02*
X76640000Y-81050000D01*
X76640000Y-80300000D01*
X76960000Y-80300000D01*
X76960000Y-81050000D01*
G36*
X76960000Y-81050000D02*
G01*
X76640000Y-81050000D01*
X76640000Y-80300000D01*
X76960000Y-80300000D01*
X76960000Y-81050000D01*
G37*
X76960000Y-87900000D02*
X76640000Y-87900000D01*
X76640000Y-87150000D01*
X76960000Y-87150000D01*
X76960000Y-87900000D01*
G36*
X76960000Y-87900000D02*
G01*
X76640000Y-87900000D01*
X76640000Y-87150000D01*
X76960000Y-87150000D01*
X76960000Y-87900000D01*
G37*
X77360000Y-81050000D02*
X77040000Y-81050000D01*
X77040000Y-80300000D01*
X77360000Y-80300000D01*
X77360000Y-81050000D01*
G36*
X77360000Y-81050000D02*
G01*
X77040000Y-81050000D01*
X77040000Y-80300000D01*
X77360000Y-80300000D01*
X77360000Y-81050000D01*
G37*
X77360000Y-87900000D02*
X77040000Y-87900000D01*
X77040000Y-87150000D01*
X77360000Y-87150000D01*
X77360000Y-87900000D01*
G36*
X77360000Y-87900000D02*
G01*
X77040000Y-87900000D01*
X77040000Y-87150000D01*
X77360000Y-87150000D01*
X77360000Y-87900000D01*
G37*
X78400000Y-81660000D02*
X77650000Y-81660000D01*
X77650000Y-81340000D01*
X78400000Y-81340000D01*
X78400000Y-81660000D01*
G36*
X78400000Y-81660000D02*
G01*
X77650000Y-81660000D01*
X77650000Y-81340000D01*
X78400000Y-81340000D01*
X78400000Y-81660000D01*
G37*
X78400000Y-82060000D02*
X77650000Y-82060000D01*
X77650000Y-81740000D01*
X78400000Y-81740000D01*
X78400000Y-82060000D01*
G36*
X78400000Y-82060000D02*
G01*
X77650000Y-82060000D01*
X77650000Y-81740000D01*
X78400000Y-81740000D01*
X78400000Y-82060000D01*
G37*
X78400000Y-82460000D02*
X77650000Y-82460000D01*
X77650000Y-82140000D01*
X78400000Y-82140000D01*
X78400000Y-82460000D01*
G36*
X78400000Y-82460000D02*
G01*
X77650000Y-82460000D01*
X77650000Y-82140000D01*
X78400000Y-82140000D01*
X78400000Y-82460000D01*
G37*
X78400000Y-82860000D02*
X77650000Y-82860000D01*
X77650000Y-82540000D01*
X78400000Y-82540000D01*
X78400000Y-82860000D01*
G36*
X78400000Y-82860000D02*
G01*
X77650000Y-82860000D01*
X77650000Y-82540000D01*
X78400000Y-82540000D01*
X78400000Y-82860000D01*
G37*
X78400000Y-83260000D02*
X77650000Y-83260000D01*
X77650000Y-82940000D01*
X78400000Y-82940000D01*
X78400000Y-83260000D01*
G36*
X78400000Y-83260000D02*
G01*
X77650000Y-83260000D01*
X77650000Y-82940000D01*
X78400000Y-82940000D01*
X78400000Y-83260000D01*
G37*
X78400000Y-83660000D02*
X77650000Y-83660000D01*
X77650000Y-83340000D01*
X78400000Y-83340000D01*
X78400000Y-83660000D01*
G36*
X78400000Y-83660000D02*
G01*
X77650000Y-83660000D01*
X77650000Y-83340000D01*
X78400000Y-83340000D01*
X78400000Y-83660000D01*
G37*
X78400000Y-84060000D02*
X77650000Y-84060000D01*
X77650000Y-83740000D01*
X78400000Y-83740000D01*
X78400000Y-84060000D01*
G36*
X78400000Y-84060000D02*
G01*
X77650000Y-84060000D01*
X77650000Y-83740000D01*
X78400000Y-83740000D01*
X78400000Y-84060000D01*
G37*
X78400000Y-84460000D02*
X77650000Y-84460000D01*
X77650000Y-84140000D01*
X78400000Y-84140000D01*
X78400000Y-84460000D01*
G36*
X78400000Y-84460000D02*
G01*
X77650000Y-84460000D01*
X77650000Y-84140000D01*
X78400000Y-84140000D01*
X78400000Y-84460000D01*
G37*
X78400000Y-84860000D02*
X77650000Y-84860000D01*
X77650000Y-84540000D01*
X78400000Y-84540000D01*
X78400000Y-84860000D01*
G36*
X78400000Y-84860000D02*
G01*
X77650000Y-84860000D01*
X77650000Y-84540000D01*
X78400000Y-84540000D01*
X78400000Y-84860000D01*
G37*
X78400000Y-85260000D02*
X77650000Y-85260000D01*
X77650000Y-84940000D01*
X78400000Y-84940000D01*
X78400000Y-85260000D01*
G36*
X78400000Y-85260000D02*
G01*
X77650000Y-85260000D01*
X77650000Y-84940000D01*
X78400000Y-84940000D01*
X78400000Y-85260000D01*
G37*
X78400000Y-85660000D02*
X77650000Y-85660000D01*
X77650000Y-85340000D01*
X78400000Y-85340000D01*
X78400000Y-85660000D01*
G36*
X78400000Y-85660000D02*
G01*
X77650000Y-85660000D01*
X77650000Y-85340000D01*
X78400000Y-85340000D01*
X78400000Y-85660000D01*
G37*
X78400000Y-86060000D02*
X77650000Y-86060000D01*
X77650000Y-85740000D01*
X78400000Y-85740000D01*
X78400000Y-86060000D01*
G36*
X78400000Y-86060000D02*
G01*
X77650000Y-86060000D01*
X77650000Y-85740000D01*
X78400000Y-85740000D01*
X78400000Y-86060000D01*
G37*
X78400000Y-86460000D02*
X77650000Y-86460000D01*
X77650000Y-86140000D01*
X78400000Y-86140000D01*
X78400000Y-86460000D01*
G36*
X78400000Y-86460000D02*
G01*
X77650000Y-86460000D01*
X77650000Y-86140000D01*
X78400000Y-86140000D01*
X78400000Y-86460000D01*
G37*
X78400000Y-86860000D02*
X77650000Y-86860000D01*
X77650000Y-86540000D01*
X78400000Y-86540000D01*
X78400000Y-86860000D01*
G36*
X78400000Y-86860000D02*
G01*
X77650000Y-86860000D01*
X77650000Y-86540000D01*
X78400000Y-86540000D01*
X78400000Y-86860000D01*
G37*
%TD*%
D11*
%TO.C,C12*%
X81550000Y-87350000D03*
X79650000Y-87350000D03*
%TD*%
D12*
%TO.C,C1*%
X54570180Y-100875000D03*
X54570180Y-98975000D03*
%TD*%
D13*
%TO.C,R12*%
X67187500Y-83600000D03*
X69012500Y-83600000D03*
%TD*%
D14*
%TO.C,POW-LED1*%
X66012500Y-72462500D03*
X67887500Y-72462500D03*
%TD*%
D12*
%TO.C,C4*%
X47762500Y-91900000D03*
X47762500Y-90000000D03*
%TD*%
%TO.C,C8*%
X47762500Y-95400000D03*
X47762500Y-93500000D03*
%TD*%
D15*
%TO.C,H1*%
X93750000Y-63250000D03*
%TD*%
D12*
%TO.C,C10*%
X66200000Y-70662500D03*
X66200000Y-68762500D03*
%TD*%
D16*
%TO.C,R2*%
X66320180Y-91587500D03*
X66320180Y-89762500D03*
%TD*%
D17*
%TO.C,SW4*%
X82500000Y-58600000D03*
X75700000Y-58600000D03*
D18*
X81600000Y-61350000D03*
X79100000Y-61350000D03*
X76600000Y-61350000D03*
%TD*%
D19*
%TO.C,Red1*%
X42000000Y-66687500D03*
X42000000Y-64812500D03*
%TD*%
D13*
%TO.C,R10*%
X60187500Y-85350000D03*
X62012500Y-85350000D03*
%TD*%
D20*
%TO.C,D1*%
X43350000Y-86850000D03*
X47350000Y-86850000D03*
%TD*%
D15*
%TO.C,H4*%
X34250000Y-63250000D03*
%TD*%
D13*
%TO.C,R9*%
X67187500Y-79600000D03*
X69012500Y-79600000D03*
%TD*%
D21*
%TO.C,R14*%
X86230000Y-79867500D03*
X84405000Y-79867500D03*
%TD*%
D22*
%TO.C,Q1*%
X47787500Y-83800000D03*
X47787500Y-81900000D03*
X45912500Y-82850000D03*
%TD*%
D19*
%TO.C,Green1*%
X44000000Y-66687500D03*
X44000000Y-64812500D03*
%TD*%
D23*
%TO.C,U6*%
X74600000Y-84100000D03*
%TD*%
D16*
%TO.C,R5*%
X43350000Y-84012500D03*
X43350000Y-82187500D03*
%TD*%
D12*
%TO.C,C2*%
X56570180Y-100875000D03*
X56570180Y-98975000D03*
%TD*%
D17*
%TO.C,SW1*%
X66250000Y-58600000D03*
X59450000Y-58600000D03*
D18*
X65350000Y-61350000D03*
X62850000Y-61350000D03*
X60350000Y-61350000D03*
%TD*%
D24*
%TO.C,U7*%
X66200000Y-64712500D03*
X65250000Y-64712500D03*
X64300000Y-64712500D03*
X64300000Y-66987500D03*
X66200000Y-66987500D03*
%TD*%
D25*
%TO.C,D3*%
X91350000Y-97850000D03*
X88650000Y-85150000D03*
D26*
X90000000Y-91500000D03*
%TD*%
D13*
%TO.C,R8*%
X50850000Y-90700000D03*
X52675000Y-90700000D03*
%TD*%
%TO.C,R11*%
X63687500Y-85350000D03*
X65512500Y-85350000D03*
%TD*%
D27*
%TO.C,Q2*%
X40500000Y-96600000D03*
X39850000Y-96600000D03*
X39200000Y-96600000D03*
X39200000Y-98210000D03*
X39850000Y-98210000D03*
X40500000Y-98210000D03*
%TD*%
D28*
%TO.C,A1*%
X64164750Y-94035250D03*
D29*
X59180000Y-96100000D03*
X60035250Y-98164750D03*
X65020000Y-96100000D03*
%TD*%
D30*
%TO.C,C7*%
X60850000Y-71212500D03*
X62750000Y-71212500D03*
%TD*%
D12*
%TO.C,C3*%
X46600000Y-73550000D03*
X46600000Y-71650000D03*
%TD*%
D13*
%TO.C,R13*%
X71937500Y-63600000D03*
X73762500Y-63600000D03*
%TD*%
D11*
%TO.C,C11*%
X81550000Y-85350000D03*
X79650000Y-85350000D03*
%TD*%
D31*
%TO.C,SW3*%
X43985000Y-99850000D03*
X50715000Y-99850000D03*
%TD*%
D32*
%TO.C,U2*%
X87762500Y-79810000D03*
X89032500Y-79810000D03*
X90302500Y-79810000D03*
X91572500Y-79810000D03*
X91572500Y-75000000D03*
X90302500Y-75000000D03*
X89032500Y-75000000D03*
X87762500Y-75000000D03*
D33*
X89667500Y-77405000D03*
%TD*%
D34*
%TO.C,P1*%
X36140000Y-79210000D03*
X36140000Y-84990000D03*
D35*
X37585000Y-78850000D03*
X37585000Y-79650000D03*
D36*
X37585000Y-80850000D03*
X37585000Y-81850000D03*
X37585000Y-82350000D03*
X37585000Y-83350000D03*
D35*
X37585000Y-84550000D03*
X37585000Y-85350000D03*
X37585000Y-85350000D03*
X37585000Y-84550000D03*
D36*
X37585000Y-83850000D03*
X37585000Y-82850000D03*
X37585000Y-81350000D03*
X37585000Y-80350000D03*
D35*
X37585000Y-79650000D03*
X37585000Y-78850000D03*
D37*
X36670000Y-77780000D03*
D38*
X32490000Y-77780000D03*
D37*
X36670000Y-86420000D03*
D38*
X32490000Y-86420000D03*
%TD*%
D15*
%TO.C,H2*%
X84500000Y-101500000D03*
%TD*%
D39*
%TO.C,U1*%
X40375000Y-90200000D03*
X40375000Y-91200000D03*
X40375000Y-92200000D03*
X40375000Y-93200000D03*
X40375000Y-94200000D03*
X45650000Y-94200000D03*
X45650000Y-93200000D03*
X45650000Y-92200000D03*
X45650000Y-91200000D03*
X45650000Y-90200000D03*
D40*
X43012500Y-92200000D03*
%TD*%
D30*
%TO.C,C9*%
X67100000Y-81600000D03*
X69000000Y-81600000D03*
%TD*%
D16*
%TO.C,R16*%
X43750000Y-70162500D03*
X43750000Y-68337500D03*
%TD*%
D13*
%TO.C,R3*%
X42025000Y-79850000D03*
X43850000Y-79850000D03*
%TD*%
%TO.C,R7*%
X50600000Y-92700000D03*
X52425000Y-92700000D03*
%TD*%
D41*
%TO.C,R1*%
X68200000Y-68800000D03*
X68200000Y-70625000D03*
%TD*%
D15*
%TO.C,H3*%
X33500000Y-101500000D03*
%TD*%
D42*
%TO.C,C5*%
X41350000Y-82150000D03*
X41350000Y-84050000D03*
%TD*%
D16*
%TO.C,R4*%
X68600000Y-91675000D03*
X68600000Y-89850000D03*
%TD*%
D43*
%TO.C,U4*%
X40895000Y-77275000D03*
X42165000Y-77275000D03*
X43435000Y-77275000D03*
X44705000Y-77275000D03*
X44705000Y-72325000D03*
X43435000Y-72325000D03*
X42165000Y-72325000D03*
X40895000Y-72325000D03*
D44*
X42800000Y-74800000D03*
%TD*%
D45*
%TO.C,J3*%
X46040000Y-61000000D03*
X41000000Y-61000000D03*
%TD*%
D21*
%TO.C,R6*%
X69112500Y-61850000D03*
X67287500Y-61850000D03*
%TD*%
D31*
%TO.C,SW2*%
X43885000Y-104750000D03*
X50615000Y-104750000D03*
%TD*%
D16*
%TO.C,R15*%
X41750000Y-70250000D03*
X41750000Y-68425000D03*
%TD*%
M02*
