M48
; DRILL file {KiCad 9.0.7} date 2026-05-12T18:13:15-0400
; FORMAT={-:-/ absolute / metric / decimal}
; #@! TF.CreationDate,2026-05-12T18:13:15-04:00
; #@! TF.GenerationSoftware,Kicad,Pcbnew,9.0.7
; #@! TF.FileFunction,Plated,1,2,PTH
FMAT,2
METRIC
; #@! TA.AperFunction,Plated,PTH,ComponentDrill
T1C0.200
; #@! TA.AperFunction,Plated,PTH,ViaDrill
T2C0.300
; #@! TA.AperFunction,Plated,PTH,ComponentDrill
T3C0.400
; #@! TA.AperFunction,Plated,PTH,ComponentDrill
T4C0.600
; #@! TA.AperFunction,Plated,PTH,ComponentDrill
T5C0.700
%
G90
G05
T1
X41.6Y-74.1
X41.6Y-75.5
X42.8Y-74.1
X42.8Y-75.5
X44.0Y-74.1
X44.0Y-75.5
T2
X38.25Y-86.1
X39.0Y-61.0
X39.1Y-92.35
X40.35Y-82.1
X42.85Y-94.35
X44.332Y-82.118
X44.85Y-80.6
X46.792Y-82.558
X47.6Y-74.1
X48.85Y-95.6
X48.975Y-91.975
X50.25Y-94.75
X50.35Y-102.1
X52.25Y-105.0
X54.5Y-96.5
X54.6Y-102.1
X56.57Y-102.07
X59.1Y-62.1
X59.85Y-71.35
X62.04Y-82.848
X65.1Y-72.6
X65.35Y-65.6
X65.35Y-70.85
X66.0Y-81.75
X66.0Y-93.25
X66.35Y-74.4
X66.35Y-79.6
X66.5Y-85.5
X68.0Y-84.0
X70.25Y-85.5
X70.25Y-94.0
X70.35Y-79.6
X72.0Y-82.25
X75.6Y-62.1
X83.25Y-85.5
X84.5Y-81.0
X89.0Y-81.25
X89.0Y-97.75
T3
X73.1Y-83.35
X73.1Y-84.85
X73.85Y-82.6
X73.85Y-84.1
X73.85Y-85.6
X74.6Y-83.35
X74.6Y-84.85
X75.35Y-82.6
X75.35Y-84.1
X75.35Y-85.6
X76.1Y-83.35
X76.1Y-84.85
T5
X59.18Y-96.1
X60.035Y-98.165
X64.165Y-94.035
X65.02Y-96.1
T4
G00X32.79Y-77.78
M15
G01X32.19Y-77.78
M16
G05
G00X32.79Y-86.42
M15
G01X32.19Y-86.42
M16
G05
G00X37.22Y-77.78
M15
G01X36.12Y-77.78
M16
G05
G00X37.22Y-86.42
M15
G01X36.12Y-86.42
M16
G05
M30
